<svg width="372" height="279" viewBox="0 0 372 279" fill="none" xmlns="http://www.w3.org/2000/svg">
<rect x="2" y="1" width="370" height="278" rx="8" fill="white"/>
<rect x="3" y="2" width="368" height="276" rx="7" stroke="#666666" stroke-opacity="0.08" stroke-width="2"/>
<path d="M2 1C11 22 140.5 15 213.5 116.5C286.5 218 276 267.5 367.5 274.5" stroke="#F5F9FF" stroke-width="4"/>
<path d="M66.048 145.248L61.368 162H57.408L54.264 150.072L50.976 162L47.04 162.024L42.528 145.248H46.128L49.08 158.256L52.488 145.248H56.232L59.448 158.184L62.424 145.248H66.048ZM74.1459 162.216C72.8659 162.216 71.7139 161.936 70.6899 161.376C69.6659 160.8 68.8579 159.992 68.2659 158.952C67.6899 157.912 67.4019 156.712 67.4019 155.352C67.4019 153.992 67.6979 152.792 68.2899 151.752C68.8979 150.712 69.7219 149.912 70.7619 149.352C71.8019 148.776 72.9619 148.488 74.2419 148.488C75.5219 148.488 76.6819 148.776 77.7219 149.352C78.7619 149.912 79.5779 150.712 80.1699 151.752C80.7779 152.792 81.0819 153.992 81.0819 155.352C81.0819 156.712 80.7699 157.912 80.1459 158.952C79.5379 159.992 78.7059 160.8 77.6499 161.376C76.6099 161.936 75.4419 162.216 74.1459 162.216ZM74.1459 159.288C74.7539 159.288 75.3219 159.144 75.8499 158.856C76.3939 158.552 76.8259 158.104 77.1459 157.512C77.4659 156.92 77.6259 156.2 77.6259 155.352C77.6259 154.088 77.2899 153.12 76.6179 152.448C75.9619 151.76 75.1539 151.416 74.1939 151.416C73.2339 151.416 72.4259 151.76 71.7699 152.448C71.1299 153.12 70.8099 154.088 70.8099 155.352C70.8099 156.616 71.1219 157.592 71.7459 158.28C72.3859 158.952 73.1859 159.288 74.1459 159.288ZM86.9066 150.768C87.3386 150.064 87.8986 149.512 88.5866 149.112C89.2906 148.712 90.0906 148.512 90.9866 148.512V152.04H90.0986C89.0426 152.04 88.2426 152.288 87.6986 152.784C87.1706 153.28 86.9066 154.144 86.9066 155.376V162H83.5466V148.704H86.9066V150.768ZM97.1618 151.464V157.896C97.1618 158.344 97.2658 158.672 97.4738 158.88C97.6978 159.072 98.0658 159.168 98.5778 159.168H100.138V162H98.0258C95.1938 162 93.7778 160.624 93.7778 157.872V151.464H92.1938V148.704H93.7778V145.416H97.1618V148.704H100.138V151.464H97.1618ZM110.042 148.512C111.05 148.512 111.946 148.736 112.73 149.184C113.514 149.616 114.122 150.264 114.554 151.128C115.002 151.976 115.226 153 115.226 154.2V162H111.866V154.656C111.866 153.6 111.602 152.792 111.074 152.232C110.546 151.656 109.826 151.368 108.914 151.368C107.986 151.368 107.25 151.656 106.706 152.232C106.178 152.792 105.914 153.6 105.914 154.656V162H102.554V144.24H105.914V150.36C106.346 149.784 106.922 149.336 107.642 149.016C108.362 148.68 109.162 148.512 110.042 148.512ZM130.044 162.216C128.764 162.216 127.612 161.936 126.588 161.376C125.564 160.8 124.756 159.992 124.164 158.952C123.588 157.912 123.3 156.712 123.3 155.352C123.3 153.992 123.596 152.792 124.188 151.752C124.796 150.712 125.62 149.912 126.66 149.352C127.7 148.776 128.86 148.488 130.14 148.488C131.42 148.488 132.58 148.776 133.62 149.352C134.66 149.912 135.476 150.712 136.068 151.752C136.676 152.792 136.98 153.992 136.98 155.352C136.98 156.712 136.668 157.912 136.044 158.952C135.436 159.992 134.604 160.8 133.548 161.376C132.508 161.936 131.34 162.216 130.044 162.216ZM130.044 159.288C130.652 159.288 131.22 159.144 131.748 158.856C132.292 158.552 132.724 158.104 133.044 157.512C133.364 156.92 133.524 156.2 133.524 155.352C133.524 154.088 133.188 153.12 132.516 152.448C131.86 151.76 131.052 151.416 130.092 151.416C129.132 151.416 128.324 151.76 127.668 152.448C127.028 153.12 126.708 154.088 126.708 155.352C126.708 156.616 127.02 157.592 127.644 158.28C128.284 158.952 129.084 159.288 130.044 159.288ZM145.541 151.464H143.213V162H139.805V151.464H138.293V148.704H139.805V148.032C139.805 146.4 140.269 145.2 141.197 144.432C142.125 143.664 143.525 143.304 145.397 143.352V146.184C144.581 146.168 144.013 146.304 143.693 146.592C143.373 146.88 143.213 147.4 143.213 148.152V148.704H145.541V151.464ZM171.701 145.248V162H168.341V151.104L163.853 162H161.309L156.797 151.104V162H153.437V145.248H157.253L162.581 157.704L167.909 145.248H171.701ZM180.927 162.216C179.647 162.216 178.495 161.936 177.471 161.376C176.447 160.8 175.639 159.992 175.047 158.952C174.471 157.912 174.183 156.712 174.183 155.352C174.183 153.992 174.479 152.792 175.071 151.752C175.679 150.712 176.503 149.912 177.543 149.352C178.583 148.776 179.743 148.488 181.023 148.488C182.303 148.488 183.463 148.776 184.503 149.352C185.543 149.912 186.359 150.712 186.951 151.752C187.559 152.792 187.863 153.992 187.863 155.352C187.863 156.712 187.551 157.912 186.927 158.952C186.319 159.992 185.487 160.8 184.431 161.376C183.391 161.936 182.223 162.216 180.927 162.216ZM180.927 159.288C181.535 159.288 182.103 159.144 182.631 158.856C183.175 158.552 183.607 158.104 183.927 157.512C184.247 156.92 184.407 156.2 184.407 155.352C184.407 154.088 184.071 153.12 183.399 152.448C182.743 151.76 181.935 151.416 180.975 151.416C180.015 151.416 179.207 151.76 178.551 152.448C177.911 153.12 177.591 154.088 177.591 155.352C177.591 156.616 177.903 157.592 178.527 158.28C179.167 158.952 179.967 159.288 180.927 159.288ZM197.696 148.512C199.28 148.512 200.56 149.016 201.536 150.024C202.512 151.016 203 152.408 203 154.2V162H199.64V154.656C199.64 153.6 199.376 152.792 198.848 152.232C198.32 151.656 197.6 151.368 196.688 151.368C195.76 151.368 195.024 151.656 194.48 152.232C193.952 152.792 193.688 153.6 193.688 154.656V162H190.328V148.704H193.688V150.36C194.136 149.784 194.704 149.336 195.392 149.016C196.096 148.68 196.864 148.512 197.696 148.512ZM218.555 155.064C218.555 155.544 218.523 155.976 218.459 156.36H208.739C208.819 157.32 209.155 158.072 209.747 158.616C210.339 159.16 211.067 159.432 211.931 159.432C213.179 159.432 214.067 158.896 214.595 157.824H218.219C217.835 159.104 217.099 160.16 216.011 160.992C214.923 161.808 213.587 162.216 212.003 162.216C210.723 162.216 209.571 161.936 208.547 161.376C207.539 160.8 206.747 159.992 206.171 158.952C205.611 157.912 205.331 156.712 205.331 155.352C205.331 153.976 205.611 152.768 206.171 151.728C206.731 150.688 207.515 149.888 208.523 149.328C209.531 148.768 210.691 148.488 212.003 148.488C213.267 148.488 214.395 148.76 215.387 149.304C216.395 149.848 217.171 150.624 217.715 151.632C218.275 152.624 218.555 153.768 218.555 155.064ZM215.075 154.104C215.059 153.24 214.747 152.552 214.139 152.04C213.531 151.512 212.787 151.248 211.907 151.248C211.075 151.248 210.371 151.504 209.795 152.016C209.235 152.512 208.891 153.208 208.763 154.104H215.075ZM233.728 148.704L225.496 168.288H221.92L224.8 161.664L219.472 148.704H223.24L226.672 157.992L230.152 148.704H233.728Z" fill="#222222"/>
<path d="M50.72 206H52.256L48.24 194.912H46.56L42.528 206H44.064L44.96 203.52H49.824L50.72 206ZM49.408 202.336H45.376L47.392 196.704L49.408 202.336ZM54.2853 206H55.7413V198.432H57.5813V197.232H55.7413V196.608C55.7413 195.472 56.1733 194.992 57.4852 194.992V193.776C55.2453 193.776 54.2853 194.656 54.2853 196.608V197.232H53.1493V198.432H54.2853V206ZM59.5989 203.6C59.5989 205.36 60.4789 206 62.0309 206H63.3429V204.768H62.2709C61.3749 204.768 61.0549 204.464 61.0549 203.6V198.432H63.3429V197.232H61.0549V195.024H59.5989V197.232H58.4629V198.432H59.5989V203.6ZM68.835 198.32C70.339 198.32 71.619 199.264 71.603 200.976H66.067C66.227 199.264 67.411 198.32 68.835 198.32ZM72.931 203.296H71.363C71.043 204.24 70.211 204.912 68.899 204.912C67.411 204.912 66.163 203.936 66.051 202.16H73.059C73.091 201.856 73.107 201.6 73.107 201.28C73.107 198.88 71.443 197.088 68.899 197.088C66.339 197.088 64.563 198.832 64.563 201.6C64.563 204.384 66.403 206.144 68.899 206.144C71.075 206.144 72.483 204.896 72.931 203.296ZM76.4849 201.232C76.4849 199.2 77.5409 198.576 78.9329 198.576H79.3169V197.072C77.9249 197.072 76.9809 197.68 76.4849 198.656V197.232H75.0289V206H76.4849V201.232ZM91.5673 203.616C91.5033 200.48 86.4153 201.616 86.4153 199.536C86.4153 198.832 87.0553 198.32 88.1273 198.32C89.2953 198.32 89.9673 198.96 90.0313 199.84H91.4873C91.3913 198.128 90.1113 197.088 88.1753 197.088C86.2233 197.088 84.9593 198.192 84.9593 199.536C84.9593 202.8 90.1433 201.664 90.1433 203.616C90.1433 204.336 89.5033 204.912 88.3513 204.912C87.1193 204.912 86.3673 204.272 86.2873 203.424H84.7833C84.8793 205.024 86.3193 206.144 88.3673 206.144C90.3033 206.144 91.5673 205.056 91.5673 203.616ZM101.399 197.232H99.9426V202.048C99.9426 203.936 98.9346 204.864 97.4306 204.864C95.9586 204.864 94.9826 203.952 94.9826 202.176V197.232H93.5426V202.368C93.5426 204.88 95.1266 206.128 97.1426 206.128C98.3106 206.128 99.3826 205.616 99.9426 204.704V206H101.399V197.232ZM103.313 201.6C103.313 204.384 105.089 206.144 107.585 206.144C109.761 206.144 111.185 204.928 111.633 203.184H110.065C109.745 204.288 108.881 204.912 107.585 204.912C105.985 204.912 104.801 203.776 104.801 201.6C104.801 199.456 105.985 198.32 107.585 198.32C108.881 198.32 109.761 198.992 110.065 200.048H111.633C111.185 198.208 109.761 197.088 107.585 197.088C105.089 197.088 103.313 198.848 103.313 201.6ZM113.032 201.6C113.032 204.384 114.808 206.144 117.304 206.144C119.48 206.144 120.904 204.928 121.352 203.184H119.784C119.464 204.288 118.6 204.912 117.304 204.912C115.704 204.912 114.52 203.776 114.52 201.6C114.52 199.456 115.704 198.32 117.304 198.32C118.6 198.32 119.48 198.992 119.784 200.048H121.352C120.904 198.208 119.48 197.088 117.304 197.088C114.808 197.088 113.032 198.848 113.032 201.6ZM127.023 198.32C128.527 198.32 129.807 199.264 129.791 200.976H124.255C124.414 199.264 125.599 198.32 127.023 198.32ZM131.119 203.296H129.551C129.231 204.24 128.399 204.912 127.087 204.912C125.599 204.912 124.351 203.936 124.239 202.16H131.247C131.279 201.856 131.295 201.6 131.295 201.28C131.295 198.88 129.631 197.088 127.087 197.088C124.527 197.088 122.751 198.832 122.751 201.6C122.751 204.384 124.591 206.144 127.087 206.144C129.263 206.144 130.671 204.896 131.119 203.296ZM139.52 203.616C139.456 200.48 134.368 201.616 134.368 199.536C134.368 198.832 135.008 198.32 136.08 198.32C137.248 198.32 137.92 198.96 137.984 199.84H139.44C139.344 198.128 138.064 197.088 136.128 197.088C134.176 197.088 132.912 198.192 132.912 199.536C132.912 202.8 138.096 201.664 138.096 203.616C138.096 204.336 137.456 204.912 136.304 204.912C135.072 204.912 134.32 204.272 134.24 203.424H132.736C132.832 205.024 134.272 206.144 136.32 206.144C138.256 206.144 139.52 205.056 139.52 203.616ZM147.88 203.616C147.816 200.48 142.728 201.616 142.728 199.536C142.728 198.832 143.368 198.32 144.44 198.32C145.608 198.32 146.28 198.96 146.344 199.84H147.8C147.704 198.128 146.424 197.088 144.488 197.088C142.536 197.088 141.272 198.192 141.272 199.536C141.272 202.8 146.456 201.664 146.456 203.616C146.456 204.336 145.816 204.912 144.664 204.912C143.432 204.912 142.68 204.272 142.6 203.424H141.096C141.192 205.024 142.632 206.144 144.68 206.144C146.616 206.144 147.88 205.056 147.88 203.616ZM150.207 206H151.663V198.432H153.503V197.232H151.663V196.608C151.663 195.472 152.095 194.992 153.407 194.992V193.776C151.167 193.776 150.207 194.656 150.207 196.608V197.232H149.071V198.432H150.207V206ZM162.977 197.232H161.521V202.048C161.521 203.936 160.513 204.864 159.009 204.864C157.537 204.864 156.561 203.952 156.561 202.176V197.232H155.121V202.368C155.121 204.88 156.705 206.128 158.721 206.128C159.889 206.128 160.961 205.616 161.521 204.704V206H162.977V197.232ZM165.435 206H166.891V194.16H165.435V206ZM173.094 201.584C173.094 204.304 174.902 206.144 177.238 206.144C178.854 206.144 179.99 205.312 180.518 204.368V206H181.99V197.232H180.518V198.832C180.006 197.92 178.886 197.088 177.254 197.088C174.902 197.088 173.094 198.848 173.094 201.584ZM180.518 201.6C180.518 203.664 179.142 204.864 177.542 204.864C175.942 204.864 174.582 203.648 174.582 201.584C174.582 199.52 175.942 198.352 177.542 198.352C179.142 198.352 180.518 199.568 180.518 201.6ZM183.907 201.6C183.907 204.384 185.683 206.144 188.179 206.144C190.355 206.144 191.779 204.928 192.227 203.184H190.659C190.339 204.288 189.475 204.912 188.179 204.912C186.579 204.912 185.395 203.776 185.395 201.6C185.395 199.456 186.579 198.32 188.179 198.32C189.475 198.32 190.355 198.992 190.659 200.048H192.227C191.779 198.208 190.355 197.088 188.179 197.088C185.683 197.088 183.907 198.848 183.907 201.6ZM193.626 201.6C193.626 204.384 195.402 206.144 197.898 206.144C200.074 206.144 201.498 204.928 201.946 203.184H200.378C200.058 204.288 199.194 204.912 197.898 204.912C196.298 204.912 195.114 203.776 195.114 201.6C195.114 199.456 196.298 198.32 197.898 198.32C199.194 198.32 200.074 198.992 200.378 200.048H201.946C201.498 198.208 200.074 197.088 197.898 197.088C195.402 197.088 193.626 198.848 193.626 201.6ZM207.616 198.32C209.12 198.32 210.4 199.264 210.384 200.976H204.848C205.008 199.264 206.192 198.32 207.616 198.32ZM211.712 203.296H210.144C209.824 204.24 208.992 204.912 207.68 204.912C206.192 204.912 204.944 203.936 204.832 202.16H211.84C211.872 201.856 211.888 201.6 211.888 201.28C211.888 198.88 210.224 197.088 207.68 197.088C205.12 197.088 203.344 198.832 203.344 201.6C203.344 204.384 205.184 206.144 207.68 206.144C209.856 206.144 211.264 204.896 211.712 203.296ZM220.114 203.616C220.05 200.48 214.962 201.616 214.962 199.536C214.962 198.832 215.602 198.32 216.674 198.32C217.842 198.32 218.514 198.96 218.578 199.84H220.034C219.938 198.128 218.658 197.088 216.722 197.088C214.77 197.088 213.506 198.192 213.506 199.536C213.506 202.8 218.69 201.664 218.69 203.616C218.69 204.336 218.05 204.912 216.898 204.912C215.666 204.912 214.914 204.272 214.834 203.424H213.33C213.426 205.024 214.866 206.144 216.914 206.144C218.85 206.144 220.114 205.056 220.114 203.616ZM228.474 203.616C228.41 200.48 223.322 201.616 223.322 199.536C223.322 198.832 223.962 198.32 225.034 198.32C226.202 198.32 226.874 198.96 226.938 199.84H228.394C228.298 198.128 227.018 197.088 225.082 197.088C223.13 197.088 221.866 198.192 221.866 199.536C221.866 202.8 227.05 201.664 227.05 203.616C227.05 204.336 226.41 204.912 225.258 204.912C224.026 204.912 223.274 204.272 223.194 203.424H221.69C221.786 205.024 223.226 206.144 225.274 206.144C227.21 206.144 228.474 205.056 228.474 203.616ZM235.115 203.6C235.115 205.36 235.995 206 237.547 206H238.859V204.768H237.786C236.891 204.768 236.571 204.464 236.571 203.6V198.432H238.859V197.232H236.571V195.024H235.115V197.232H233.979V198.432H235.115V203.6ZM240.623 206H242.079V201.152C242.079 199.264 243.103 198.336 244.591 198.336C246.063 198.336 247.039 199.248 247.039 201.04V206H248.479V200.832C248.479 198.32 246.927 197.072 244.975 197.072C243.743 197.072 242.655 197.568 242.079 198.496V194.16H240.623V206ZM254.585 198.32C256.089 198.32 257.369 199.264 257.353 200.976H251.817C251.977 199.264 253.161 198.32 254.585 198.32ZM258.681 203.296H257.113C256.793 204.24 255.961 204.912 254.649 204.912C253.161 204.912 251.913 203.936 251.801 202.16H258.809C258.841 201.856 258.857 201.6 258.857 201.28C258.857 198.88 257.193 197.088 254.649 197.088C252.089 197.088 250.313 198.832 250.313 201.6C250.313 204.384 252.153 206.144 254.649 206.144C256.825 206.144 258.233 204.896 258.681 203.296ZM267.195 206H268.635V200.832C268.635 198.32 267.083 197.072 265.051 197.072C263.867 197.072 262.811 197.568 262.235 198.48V197.232H260.779V206H262.235V201.152C262.235 199.264 263.259 198.336 264.747 198.336C266.219 198.336 267.195 199.248 267.195 201.04V206ZM276.735 198.864V194.16H275.279V206H276.735V204.384C277.279 205.344 278.415 206.144 280.015 206.144C282.367 206.144 284.175 204.304 284.175 201.584C284.175 198.848 282.383 197.088 280.015 197.088C278.463 197.088 277.295 197.888 276.735 198.864ZM282.687 201.584C282.687 203.648 281.327 204.864 279.711 204.864C278.127 204.864 276.735 203.664 276.735 201.6C276.735 199.568 278.127 198.352 279.711 198.352C281.327 198.352 282.687 199.52 282.687 201.584ZM294.411 201.6C294.411 198.832 292.475 197.088 289.979 197.088C287.499 197.088 285.547 198.832 285.547 201.6C285.547 204.384 287.435 206.144 289.915 206.144C292.411 206.144 294.411 204.384 294.411 201.6ZM287.035 201.6C287.035 199.392 288.427 198.352 289.963 198.352C291.467 198.352 292.923 199.392 292.923 201.6C292.923 203.824 291.435 204.864 289.915 204.864C288.395 204.864 287.035 203.824 287.035 201.6ZM304.646 201.6C304.646 198.832 302.71 197.088 300.214 197.088C297.734 197.088 295.782 198.832 295.782 201.6C295.782 204.384 297.67 206.144 300.15 206.144C302.646 206.144 304.646 204.384 304.646 201.6ZM297.27 201.6C297.27 199.392 298.662 198.352 300.198 198.352C301.702 198.352 303.158 199.392 303.158 201.6C303.158 203.824 301.67 204.864 300.15 204.864C298.63 204.864 297.27 203.824 297.27 201.6ZM306.56 206H308.016V202.128L311.456 206H313.44L309.296 201.6L313.424 197.232H311.392L308.016 201.12V194.16H306.56V206ZM43.504 232H44.96V224.432H46.8V223.232H44.96V222.608C44.96 221.472 45.392 220.992 46.704 220.992V219.776C44.464 219.776 43.504 220.656 43.504 222.608V223.232H42.368V224.432H43.504V232ZM49.9536 227.232C49.9536 225.2 51.0096 224.576 52.4016 224.576H52.7856V223.072C51.3936 223.072 50.4496 223.68 49.9536 224.656V223.232H48.4976V232H49.9536V227.232ZM62.7864 227.6C62.7864 224.832 60.8504 223.088 58.3544 223.088C55.8744 223.088 53.9224 224.832 53.9224 227.6C53.9224 230.384 55.8104 232.144 58.2904 232.144C60.7864 232.144 62.7864 230.384 62.7864 227.6ZM55.4104 227.6C55.4104 225.392 56.8024 224.352 58.3384 224.352C59.8424 224.352 61.2984 225.392 61.2984 227.6C61.2984 229.824 59.8104 230.864 58.2904 230.864C56.7704 230.864 55.4104 229.824 55.4104 227.6ZM77.3568 232H78.7968V226.832C78.7968 224.32 77.2448 223.072 75.2448 223.072C73.9008 223.072 72.6528 223.76 72.1408 225.024C71.5648 223.712 70.3648 223.072 68.9248 223.072C67.7728 223.072 66.7328 223.568 66.1568 224.496V223.232H64.7008V232H66.1568V227.168C66.1568 225.28 67.1648 224.336 68.6368 224.336C70.0768 224.336 71.0368 225.248 71.0368 227.04V232H72.4768V227.168C72.4768 225.28 73.4848 224.336 74.9568 224.336C76.3968 224.336 77.3568 225.248 77.3568 227.04V232ZM89.1788 224.32C90.6828 224.32 91.9628 225.264 91.9468 226.976H86.4108C86.5707 225.264 87.7548 224.32 89.1788 224.32ZM93.2748 229.296H91.7068C91.3868 230.24 90.5548 230.912 89.2428 230.912C87.7548 230.912 86.5068 229.936 86.3948 228.16H93.4028C93.4348 227.856 93.4508 227.6 93.4508 227.28C93.4508 224.88 91.7868 223.088 89.2428 223.088C86.6828 223.088 84.9068 224.832 84.9068 227.6C84.9068 230.384 86.7468 232.144 89.2428 232.144C91.4188 232.144 92.8268 230.896 93.2748 229.296ZM99.9486 232H101.597L98.7646 227.568L101.581 223.232H100.061L98.0766 226.48L95.9966 223.232H94.3486L97.1806 227.648L94.3486 232H95.8686L97.8686 228.736L99.9486 232ZM102.485 227.6C102.485 230.384 104.261 232.144 106.757 232.144C108.933 232.144 110.357 230.928 110.805 229.184H109.237C108.917 230.288 108.053 230.912 106.757 230.912C105.157 230.912 103.973 229.776 103.973 227.6C103.973 225.456 105.157 224.32 106.757 224.32C108.053 224.32 108.933 224.992 109.237 226.048H110.805C110.357 224.208 108.933 223.088 106.757 223.088C104.261 223.088 102.485 224.848 102.485 227.6ZM112.748 232H114.204V220.16H112.748V232ZM124.461 223.232H123.005V228.048C123.005 229.936 121.997 230.864 120.493 230.864C119.021 230.864 118.045 229.952 118.045 228.176V223.232H116.605V228.368C116.605 230.88 118.189 232.128 120.205 232.128C121.373 232.128 122.445 231.616 123.005 230.704V232H124.461V223.232ZM133.224 229.616C133.16 226.48 128.072 227.616 128.072 225.536C128.072 224.832 128.712 224.32 129.784 224.32C130.952 224.32 131.624 224.96 131.688 225.84H133.144C133.048 224.128 131.768 223.088 129.832 223.088C127.88 223.088 126.616 224.192 126.616 225.536C126.616 228.8 131.8 227.664 131.8 229.616C131.8 230.336 131.16 230.912 130.008 230.912C128.776 230.912 128.024 230.272 127.944 229.424H126.44C126.536 231.024 127.976 232.144 130.024 232.144C131.96 232.144 133.224 231.056 133.224 229.616ZM135.279 232H136.735V223.232H135.279V232ZM136.031 221.808C136.559 221.808 136.991 221.376 136.991 220.816C136.991 220.256 136.559 219.824 136.031 219.824C135.471 219.824 135.039 220.256 135.039 220.816C135.039 221.376 135.471 221.808 136.031 221.808ZM138.176 223.232L141.616 232H143.312L146.752 223.232H145.2L142.48 230.656L139.744 223.232H138.176ZM151.913 224.32C153.417 224.32 154.697 225.264 154.681 226.976H149.145C149.305 225.264 150.489 224.32 151.913 224.32ZM156.009 229.296H154.441C154.121 230.24 153.289 230.912 151.977 230.912C150.489 230.912 149.241 229.936 149.129 228.16H156.137C156.169 227.856 156.185 227.6 156.185 227.28C156.185 224.88 154.521 223.088 151.977 223.088C149.417 223.088 147.641 224.832 147.641 227.6C147.641 230.384 149.481 232.144 151.977 232.144C154.153 232.144 155.561 230.896 156.009 229.296ZM161.829 227.584C161.829 230.304 163.637 232.144 165.989 232.144C167.589 232.144 168.725 231.328 169.253 230.352V232H170.725V220.16H169.253V224.8C168.645 223.792 167.381 223.088 166.005 223.088C163.637 223.088 161.829 224.848 161.829 227.584ZM169.253 227.6C169.253 229.664 167.877 230.864 166.277 230.864C164.677 230.864 163.317 229.648 163.317 227.584C163.317 225.52 164.677 224.352 166.277 224.352C167.877 224.352 169.253 225.568 169.253 227.6ZM176.913 224.32C178.417 224.32 179.697 225.264 179.681 226.976H174.145C174.305 225.264 175.489 224.32 176.913 224.32ZM181.009 229.296H179.441C179.121 230.24 178.289 230.912 176.977 230.912C175.489 230.912 174.241 229.936 174.129 228.16H181.137C181.169 227.856 181.185 227.6 181.185 227.28C181.185 224.88 179.521 223.088 176.977 223.088C174.417 223.088 172.641 224.832 172.641 227.6C172.641 230.384 174.481 232.144 176.977 232.144C179.153 232.144 180.561 230.896 181.009 229.296ZM182.563 227.584C182.563 230.304 184.371 232.144 186.707 232.144C188.323 232.144 189.459 231.312 189.987 230.368V232H191.459V223.232H189.987V224.832C189.475 223.92 188.355 223.088 186.723 223.088C184.371 223.088 182.563 224.848 182.563 227.584ZM189.987 227.6C189.987 229.664 188.611 230.864 187.011 230.864C185.411 230.864 184.051 229.648 184.051 227.584C184.051 225.52 185.411 224.352 187.011 224.352C188.611 224.352 189.987 225.568 189.987 227.6ZM193.92 232H195.376V220.16H193.92V232ZM204.161 229.616C204.097 226.48 199.009 227.616 199.009 225.536C199.009 224.832 199.649 224.32 200.721 224.32C201.889 224.32 202.561 224.96 202.625 225.84H204.081C203.985 224.128 202.705 223.088 200.769 223.088C198.817 223.088 197.553 224.192 197.553 225.536C197.553 228.8 202.737 227.664 202.737 229.616C202.737 230.336 202.097 230.912 200.945 230.912C199.713 230.912 198.961 230.272 198.881 229.424H197.377C197.473 231.024 198.913 232.144 200.961 232.144C202.897 232.144 204.161 231.056 204.161 229.616ZM217.202 223.232C217.282 221.744 216.21 220.624 214.45 220.624C212.642 220.624 211.506 221.68 211.506 223.104C211.506 223.92 211.778 224.544 212.466 225.344C210.722 226.032 209.842 227.264 209.842 228.8C209.842 230.864 211.426 232.192 213.746 232.192C215.314 232.192 216.514 231.648 217.586 230.528L219.042 232H220.946L218.434 229.488C218.658 229.168 218.866 228.848 219.074 228.48L220.386 226.208H218.818L217.73 228.032C217.634 228.192 217.538 228.336 217.442 228.48L214.114 225.136C213.33 224.304 212.962 223.76 212.962 223.104C212.962 222.368 213.522 221.824 214.386 221.824C215.17 221.824 215.778 222.32 215.746 223.232H217.202ZM213.746 230.944C212.29 230.944 211.298 230 211.298 228.752C211.298 227.632 211.954 226.8 213.346 226.272L216.626 229.568C215.794 230.496 214.898 230.944 213.746 230.944ZM228.032 224.848V223.232H226.576V236.16H228.032V230.384C228.576 231.28 229.712 232.144 231.312 232.144C233.664 232.144 235.472 230.304 235.472 227.584C235.472 224.848 233.664 223.088 231.312 223.088C229.712 223.088 228.56 223.92 228.032 224.848ZM233.984 227.584C233.984 229.648 232.624 230.864 231.008 230.864C229.424 230.864 228.032 229.664 228.032 227.6C228.032 225.568 229.424 224.352 231.008 224.352C232.624 224.352 233.984 225.52 233.984 227.584ZM238.844 227.232C238.844 225.2 239.9 224.576 241.292 224.576H241.676V223.072C240.284 223.072 239.34 223.68 238.844 224.656V223.232H237.388V232H238.844V227.232ZM243.357 232H244.813V223.232H243.357V232ZM244.109 221.808C244.637 221.808 245.069 221.376 245.069 220.816C245.069 220.256 244.637 219.824 244.109 219.824C243.549 219.824 243.117 220.256 243.117 220.816C243.117 221.376 243.549 221.808 244.109 221.808ZM246.751 227.6C246.751 230.384 248.527 232.144 251.023 232.144C253.199 232.144 254.623 230.928 255.071 229.184H253.503C253.183 230.288 252.319 230.912 251.023 230.912C249.423 230.912 248.239 229.776 248.239 227.6C248.239 225.456 249.423 224.32 251.023 224.32C252.319 224.32 253.199 224.992 253.503 226.048H255.071C254.623 224.208 253.199 223.088 251.023 223.088C248.527 223.088 246.751 224.848 246.751 227.6ZM257.013 232H258.469V223.232H257.013V232ZM257.765 221.808C258.293 221.808 258.725 221.376 258.725 220.816C258.725 220.256 258.293 219.824 257.765 219.824C257.205 219.824 256.773 220.256 256.773 220.816C256.773 221.376 257.205 221.808 257.765 221.808ZM267.367 232H268.807V226.832C268.807 224.32 267.255 223.072 265.223 223.072C264.039 223.072 262.983 223.568 262.407 224.48V223.232H260.951V232H262.407V227.152C262.407 225.264 263.431 224.336 264.919 224.336C266.391 224.336 267.367 225.248 267.367 227.04V232ZM270.641 227.584C270.641 230.304 272.449 232.144 274.801 232.144C276.401 232.144 277.537 231.296 278.065 230.352V232.192C278.065 234.064 276.897 235.056 275.345 235.056C273.905 235.056 272.865 234.336 272.545 233.28H271.105C271.393 235.152 273.041 236.32 275.345 236.32C277.921 236.32 279.537 234.608 279.537 232.192V223.232H278.065V224.832C277.553 223.888 276.401 223.088 274.801 223.088C272.449 223.088 270.641 224.848 270.641 227.584ZM278.065 227.6C278.065 229.664 276.689 230.864 275.089 230.864C273.489 230.864 272.129 229.648 272.129 227.584C272.129 225.52 273.489 224.352 275.089 224.352C276.689 224.352 278.065 225.568 278.065 227.6Z" fill="#666666"/>
<path d="M67.6963 41.0961C67.5085 41.1618 67.2173 41.3214 67.0577 41.4435C66.9074 41.5656 64.0432 45.6789 60.6999 50.5905L54.6239 59.512L52.9053 59.5402L51.1868 59.5589L51.2337 59.2584C51.2619 59.0894 51.4403 57.4084 51.6187 55.5208C51.7972 53.6332 51.9662 51.9146 51.9944 51.6986C52.0507 51.3136 52.0789 51.2854 52.7175 50.9473C53.3561 50.6092 54.2576 49.8392 54.6333 49.2945L54.8211 49.0221L57.5351 49.3039C59.3758 49.4823 60.3431 49.548 60.5121 49.4917C61.038 49.3133 61.0756 48.5056 60.5685 48.2896C60.4464 48.2333 59.1128 48.0736 57.5915 47.9234C54.53 47.6323 54.2952 47.6416 53.8444 48.1394C53.6942 48.299 53.3561 48.6653 53.0838 48.9564C52.802 49.2663 52.3982 49.5856 52.0695 49.7453C51.2337 50.1491 50.9426 50.4026 50.7923 50.844C50.6984 51.0882 50.4824 52.9288 50.2383 55.3987L49.8344 59.5589H49.3931H48.9423L48.9892 59.2021C49.0174 59.0143 49.3179 56.0748 49.6466 52.6753C49.9847 49.2663 50.304 46.4114 50.351 46.3081C50.4918 46.0452 50.7548 45.9419 51.2619 45.9419C51.5061 45.9419 54.0135 46.1766 56.8214 46.4584C61.3479 46.9091 61.9677 46.9467 62.1931 46.834C62.6439 46.5992 62.6251 45.8573 62.1649 45.6601C62.0429 45.6132 60.39 45.4254 58.4742 45.2375C56.5679 45.0497 54.1262 44.8149 53.0462 44.7022C51.9568 44.5989 50.9144 44.5426 50.689 44.5708C49.8344 44.7022 49.1019 45.4347 48.9329 46.3457C48.8766 46.618 48.6136 49.0973 48.3413 51.8582L47.8529 56.8825L46.6696 56.9388C45.6554 56.9764 45.4206 57.0233 45.0356 57.2206C44.2374 57.6338 43.7866 58.4132 43.7772 59.4181C43.7678 59.8688 43.749 59.897 43.3264 60.1694C43.0916 60.3196 42.7536 60.6295 42.5845 60.8549C41.9553 61.6813 41.9835 60.9582 42.0117 74.5002L42.0398 86.7461L42.2652 87.2345C42.5376 87.8543 43.3076 88.5774 43.9181 88.8216C44.3782 89 44.8666 89 64.2028 89H84.018L84.5063 88.7746C85.0886 88.5117 85.7835 87.8073 86.0653 87.1875C86.2625 86.7649 86.2719 86.6147 86.3 83.1494L86.3282 79.562H86.6757C87.4833 79.562 88.197 79.1581 88.4412 78.5571C88.5445 78.3129 88.5727 77.4302 88.5727 74.3029C88.5727 70.5559 88.5633 70.3305 88.3849 69.983C88.1031 69.429 87.7087 69.1942 86.9574 69.1566L86.3188 69.1191V65.7195C86.3188 62.8646 86.2906 62.2354 86.1686 61.8128C85.9995 61.2493 85.6051 60.6107 85.2388 60.329C85.0229 60.16 85.0041 60.0754 85.0041 59.4462C85.0041 58.6104 84.7223 57.9437 84.1777 57.4929C83.7832 57.1736 83.0883 56.9294 82.5436 56.9294H82.1774L83.2761 55.3236C83.8865 54.4314 84.4312 53.5205 84.5063 53.2763C84.7317 52.525 84.4876 51.6329 83.9053 51.0976C83.7644 50.9661 82.5248 50.0927 81.1537 49.163C79.7826 48.2333 76.6366 46.0827 74.1574 44.3923C71.6781 42.7019 69.5276 41.2557 69.3773 41.1806C68.9923 40.9834 68.1283 40.9364 67.6963 41.0961ZM68.8608 42.4766C69.4336 42.7771 82.7408 51.9146 82.9662 52.1494C83.3794 52.5908 83.3137 52.8161 82.4027 54.1685C81.9426 54.8352 80.9471 56.319 80.1677 57.4647L78.759 59.5495L78.2143 59.5589H77.679L78.7778 57.9531C79.3788 57.0609 79.9235 56.1781 79.9986 55.9715C80.1395 55.5489 80.0831 55.2296 79.6887 54.2999C79.4727 53.7834 79.4258 53.5393 79.407 52.6753C79.3882 51.8395 79.3412 51.6047 79.1816 51.3511C79.0501 51.1257 77.8856 50.2805 75.181 48.4399C73.0868 47.0124 71.2743 45.801 71.1428 45.754C70.7296 45.5944 70.2976 45.6507 69.5369 45.9606C68.8984 46.2236 68.6824 46.2612 67.7996 46.2799C66.6163 46.3081 66.2782 46.4302 65.8744 47.0031C65.7148 47.219 63.7614 50.0833 61.5263 53.3608C59.2913 56.6383 57.4131 59.3805 57.3567 59.4462C57.2816 59.5214 57.0656 59.5589 56.7557 59.5402L56.2861 59.512L62.0053 51.107C65.1513 46.4865 67.8184 42.6268 67.9217 42.5329C68.1471 42.3545 68.5791 42.3263 68.8608 42.4766ZM74.4391 49.5856L78.0077 52.0179L78.0641 53.0415C78.111 53.8398 78.1768 54.206 78.374 54.7225C78.5148 55.0794 78.6369 55.4456 78.6463 55.5208C78.6557 55.6053 78.0734 56.5444 77.3503 57.615L76.0356 59.5495L74.8617 59.5589H73.6784L73.5751 58.9297C73.4249 58.0658 72.8144 56.8825 72.1758 56.1875C71.4997 55.455 70.7766 54.9855 69.8093 54.6474C67.8466 53.9712 65.4988 54.5253 64.0526 56.0091C63.2449 56.8355 62.6345 58.0094 62.4842 59.0236L62.4185 59.512L60.6999 59.5402C59.3194 59.5589 58.9908 59.5402 59.0471 59.4462C59.0941 59.3805 60.9159 56.6947 63.1041 53.4735L67.0859 47.6323H67.9686C68.6448 47.6323 69.011 47.5759 69.5745 47.3975C69.9783 47.266 70.3728 47.1251 70.4385 47.0782C70.523 47.0218 70.6451 47.0218 70.7202 47.0688C70.8047 47.1157 72.4764 48.2427 74.4391 49.5856ZM69.0862 55.8495C69.8469 56.0561 70.4761 56.4129 71.0489 56.9858C71.6406 57.5774 71.9974 58.2066 72.1758 58.9767L72.3073 59.5589H68.0438H63.7708L63.8366 59.2021C64.2685 56.8261 66.7384 55.239 69.0862 55.8495ZM47.6839 58.6292C47.6557 58.7889 47.6275 59.0706 47.6275 59.2396V59.5589H46.4067H45.1859V59.2209C45.1859 58.9767 45.261 58.817 45.4582 58.6104C45.7305 58.3475 45.7587 58.3381 46.7354 58.3381H47.7496L47.6839 58.6292ZM83.2479 58.5353C83.5203 58.7419 83.7738 59.4275 83.633 59.5402C83.586 59.5777 82.8441 59.5965 81.9801 59.5777L80.4118 59.5495L80.8063 58.9485L81.2007 58.3381H82.1022C82.8723 58.3381 83.0413 58.3663 83.2479 58.5353ZM84.2246 61.3057C84.8162 61.7752 84.9102 62.0664 84.9102 63.3811V64.5362H64.1559H43.4015V63.3623C43.4015 62.5265 43.4391 62.1039 43.533 61.9255C43.7021 61.5968 44.1341 61.193 44.4346 61.0709C44.5848 61.0146 51.3934 60.9864 64.2685 60.9958L83.8584 61.0146L84.2246 61.3057ZM84.9102 67.5414V69.1378H81.3697C78.5336 69.1378 77.6978 69.166 77.2189 69.2787C75.5754 69.6731 74.1668 70.9315 73.5469 72.5656C73.284 73.2699 73.1901 74.7068 73.3591 75.4393C73.7817 77.2611 75.1716 78.7449 77.0216 79.3366C77.463 79.4774 78.0453 79.5056 81.2289 79.5432L84.9102 79.5807V81.1678V82.7549H68.025C51.2149 82.7549 51.1304 82.7549 50.9614 82.9427C50.7454 83.1869 50.7454 83.6377 50.9614 83.8819C51.1304 84.0697 51.2149 84.0697 68.025 84.0697H84.9102V85.2623C84.9102 86.3329 84.882 86.502 84.6942 86.84C84.5721 87.0467 84.3185 87.3002 84.1119 87.4223L83.7363 87.6383H64.1746C42.3779 87.6383 44.2374 87.6946 43.7021 86.9997C43.4579 86.6804 43.4485 86.6147 43.4203 85.3656L43.3828 84.0697H45.3643C47.2237 84.0697 47.3552 84.0603 47.5336 83.8819C47.6369 83.7786 47.7214 83.572 47.7214 83.4123C47.7214 83.2527 47.6369 83.0461 47.5336 82.9427C47.3552 82.7643 47.2237 82.7549 45.3737 82.7549H43.4015V74.3499V65.9449H64.1559H84.9102V67.5414ZM87.1452 74.3217L87.164 78.1533H82.5906C79.9047 78.1533 77.8387 78.1063 77.6039 78.0594C76.1295 77.7119 74.9462 76.4629 74.6645 74.9509C74.2888 72.8943 75.8102 70.8282 77.895 70.5559C78.2143 70.5089 80.4212 70.4808 82.7972 70.4902L87.1171 70.4996L87.1452 74.3217Z" fill="#4086F4"/>
<path d="M77.7731 71.6641C76.5898 72.0303 75.7071 73.3357 75.8292 74.5377C75.9794 76.0309 77.1063 77.0639 78.562 77.0639C80.9849 77.0733 82.2151 74.3217 80.6374 72.4435C80.5059 72.2839 80.1397 72.0209 79.8204 71.8707C79.3414 71.6265 79.1348 71.5795 78.6277 71.5889C78.2896 71.5889 77.9046 71.6265 77.7731 71.6641ZM79.1254 73.0258C80.1115 73.439 80.2618 74.8195 79.3884 75.4675C79.0315 75.7398 78.2708 75.768 77.8858 75.5332C76.9373 74.9322 76.9937 73.5235 77.9985 73.0727C78.4587 72.8661 78.7122 72.8567 79.1254 73.0258Z" fill="#4086F4"/>
</svg>
