<svg width="514" height="422" viewBox="0 0 514 422" fill="none" xmlns="http://www.w3.org/2000/svg">
<g filter="url(#filter0_d_201_196)">
<rect x="58" y="48" width="370" height="278" rx="8" fill="white"/>
</g>
<path d="M61 323C70 302 197 328 270 226.5C343 125 336.5 55.5 428 48.5" stroke="#FFF8F5" stroke-width="4"/>
<path d="M99.7721 88.1627C99.5065 88.2603 99.1328 88.5237 98.8377 88.8164C97.923 89.7238 98.0017 87.8798 98.0017 108.145C98.0017 128.419 97.9328 126.673 98.818 127.551C99.7131 128.439 98.8082 128.37 111.811 128.458L123.22 128.536L123.839 130.917C124.174 132.224 124.557 133.493 124.675 133.736C124.99 134.351 125.62 135.015 126.239 135.385C127.243 135.98 127.459 136 132.524 136C137.403 136 137.707 135.971 138.642 135.502C139.173 135.229 139.96 134.497 140.265 133.971C140.786 133.092 140.884 132.536 140.884 130.439V128.507L142.242 128.448C144.012 128.36 144.523 128.204 145.182 127.551C146.068 126.673 145.999 128.409 145.999 108.193C145.999 87.9773 146.068 89.714 145.182 88.8262C144.258 87.909 146.609 87.9968 121.961 88.0066C102.418 88.0066 100.165 88.0261 99.7721 88.1627ZM144.091 89.4213C144.238 89.5286 144.455 89.7433 144.563 89.8896C144.759 90.1433 144.769 90.2994 144.799 93.3728L144.828 96.5828H122H99.182V93.5191C99.182 90.3385 99.2115 90.0945 99.6049 89.6652C100.087 89.1481 98.759 89.1774 122.118 89.1969L143.825 89.2164L144.091 89.4213ZM144.818 111.842C144.818 121.57 144.789 126.019 144.71 126.214C144.563 126.595 144.15 127.004 143.796 127.112C143.628 127.16 142.901 127.238 142.192 127.268L140.884 127.336V126.038C140.884 124.507 140.766 124.146 140.097 123.589C139.537 123.111 138.937 122.975 138.189 123.17L137.648 123.316L137.176 122.848C136.586 122.263 135.976 122.058 135.288 122.214C135.042 122.263 134.767 122.341 134.688 122.38C134.59 122.419 134.491 122.341 134.373 122.155C134.285 121.999 134.029 121.745 133.793 121.589C133.449 121.365 133.272 121.316 132.78 121.316C132.445 121.316 132.082 121.355 131.954 121.394L131.737 121.472V117.257C131.737 113.179 131.727 113.023 131.531 112.613C131.098 111.715 129.996 111.189 129.023 111.403C128.315 111.559 127.783 111.969 127.469 112.594L127.213 113.111V119.179V125.248L126.613 124.633C125.738 123.726 124.754 123.258 123.328 123.082C122.777 123.014 122.295 123.209 122.03 123.599C121.745 124.009 121.745 124.341 122.01 124.946C122.236 125.472 122.885 127.199 122.885 127.287C122.885 127.395 100.461 127.219 100.175 127.112C99.8213 126.975 99.477 126.643 99.3196 126.273C99.2016 126.009 99.182 123.58 99.182 111.852V97.7536H122H144.818V111.842ZM129.908 112.623C130.587 112.906 130.557 112.701 130.557 117.96C130.557 124.068 130.636 126.799 130.823 126.985C131.039 127.199 131.501 127.151 131.678 126.907C131.806 126.731 131.836 126.351 131.836 124.799C131.836 122.926 131.836 122.916 132.082 122.682C132.337 122.419 132.79 122.36 133.124 122.545C133.518 122.75 133.586 123.131 133.527 124.936C133.488 126.419 133.498 126.653 133.645 126.877C133.783 127.092 133.881 127.131 134.177 127.102C134.708 127.063 134.786 126.838 134.786 125.199V123.824L135.091 123.57C135.494 123.228 135.878 123.238 136.281 123.599L136.606 123.882L136.655 125.716C136.704 127.541 136.704 127.56 136.94 127.668C137.235 127.814 137.55 127.707 137.707 127.404C137.786 127.258 137.835 126.731 137.835 125.999C137.835 124.682 137.914 124.477 138.465 124.292C138.868 124.165 139.202 124.272 139.498 124.643C139.714 124.916 139.714 124.936 139.684 128.77L139.655 132.634L139.389 133.122C139.055 133.756 138.396 134.361 137.776 134.595C137.324 134.771 136.98 134.78 132.475 134.78C127.764 134.78 127.646 134.78 127.203 134.576C126.593 134.293 125.993 133.736 125.738 133.229C125.63 132.995 125.187 131.444 124.754 129.775C124.056 127.073 123.515 125.326 123.121 124.575C123.053 124.429 123.013 124.292 123.043 124.272C123.141 124.175 124.095 124.389 124.636 124.633C125.354 124.955 125.905 125.492 126.633 126.555L127.213 127.404V128.585C127.213 129.629 127.233 129.775 127.41 129.951C127.656 130.195 127.813 130.195 128.138 129.941L128.393 129.746V121.55C128.393 112.711 128.383 112.964 128.905 112.711C129.416 112.457 129.495 112.457 129.908 112.623Z" fill="#FA7436"/>
<path d="M102.526 90.6212C102.005 90.7285 101.602 90.9724 101.218 91.4212C100.628 92.1042 100.52 93.0214 100.953 93.8507C101.769 95.4215 104.09 95.4313 104.906 93.8604C105.782 92.2018 104.356 90.2602 102.526 90.6212ZM103.588 91.8993C103.687 91.8993 104.002 92.5823 104.002 92.8067C104.002 93.7434 102.92 94.2019 102.211 93.5677C101.385 92.836 102.182 91.5188 103.264 91.8213C103.421 91.8603 103.569 91.8993 103.588 91.8993Z" fill="#FA7436"/>
<path d="M108.427 90.6505C106.765 90.9529 106.086 93.1092 107.267 94.358C108.073 95.2069 109.578 95.2557 110.424 94.4556C111.299 93.6263 111.388 92.3091 110.62 91.4213C110.04 90.748 109.303 90.4846 108.427 90.6505ZM109.657 92.1042C109.902 92.3384 109.952 92.4652 109.952 92.836C109.952 93.2165 109.902 93.3238 109.627 93.5677C108.919 94.2019 107.837 93.7434 107.837 92.8067C107.837 92.3872 108.171 91.9188 108.545 91.8213C108.998 91.6944 109.312 91.7725 109.657 92.1042Z" fill="#FA7436"/>
<path d="M114.457 90.6414C112.263 91.0511 111.958 94.0367 114.034 94.9051C114.575 95.1295 115.588 95.0319 116.089 94.7002C116.719 94.2806 117.024 93.7538 117.063 92.9635C117.092 92.4268 117.063 92.2122 116.886 91.861C116.443 90.9438 115.46 90.456 114.457 90.6414ZM115.686 92.1439C116.02 92.5342 115.991 93.1976 115.617 93.5684C115.381 93.7928 115.243 93.8513 114.889 93.8513C114.142 93.8513 113.65 93.2464 113.847 92.5439C114.083 91.7244 115.116 91.5 115.686 92.1439Z" fill="#FA7436"/>
<path d="M123.476 92.1631C123.082 92.2997 122.954 92.8363 123.259 93.0998C123.426 93.2559 124.262 93.2656 133.291 93.2656H143.146L143.304 93.0217C143.51 92.7095 143.422 92.3582 143.097 92.2119C142.91 92.1241 140.383 92.0948 133.232 92.1046C127.951 92.1046 123.554 92.1338 123.476 92.1631Z" fill="#FA7436"/>
<path d="M109.549 103.773C108.752 104.729 108.083 105.529 108.073 105.549C108.054 105.568 107.798 105.373 107.493 105.129C107.188 104.885 106.873 104.68 106.804 104.68C106.726 104.68 106.549 104.778 106.401 104.905C105.998 105.246 106.126 105.529 107.011 106.232C107.739 106.817 108.044 106.924 108.467 106.768C108.742 106.661 111.87 102.866 111.87 102.632C111.87 102.241 111.693 102.046 111.339 102.046C111.024 102.046 110.906 102.163 109.549 103.773Z" fill="#FA7436"/>
<path d="M104.286 102.584C103.824 102.837 103.795 103.052 103.824 106.281L103.854 109.287L104.129 109.521L104.404 109.755H107.552H110.699L110.935 109.511C111.171 109.287 111.181 109.228 111.181 108.018C111.181 106.925 111.161 106.74 111.004 106.603C110.758 106.379 110.433 106.399 110.197 106.633C110.03 106.799 110.001 106.955 110.001 107.706V108.584H107.493H104.985L105.004 106.116L105.034 103.657L106.411 103.628C107.67 103.608 107.798 103.589 107.965 103.403C108.191 103.12 108.181 102.964 107.886 102.681C107.65 102.447 107.621 102.437 106.096 102.437C104.945 102.447 104.473 102.476 104.286 102.584Z" fill="#FA7436"/>
<path d="M117.181 102.896C116.699 103.071 116.541 103.549 116.866 103.832C117.033 103.988 118.007 103.998 128.816 103.998C139.379 103.998 140.589 103.979 140.727 103.842C140.894 103.686 140.933 103.344 140.805 103.149C140.766 103.091 140.609 102.983 140.461 102.935C140.166 102.827 117.476 102.788 117.181 102.896Z" fill="#FA7436"/>
<path d="M116.886 107.9C116.64 108.144 116.63 108.505 116.866 108.71C117.033 108.866 118.007 108.876 128.806 108.876C140.068 108.876 140.569 108.866 140.717 108.7C140.943 108.456 140.923 108.134 140.687 107.9C140.491 107.705 140.363 107.705 128.786 107.705C117.21 107.705 117.082 107.705 116.886 107.9Z" fill="#FA7436"/>
<path d="M109.647 116.067C108.9 116.965 108.231 117.765 108.172 117.843C108.073 117.97 107.995 117.941 107.631 117.648C106.893 117.053 106.608 117.004 106.273 117.404C106.037 117.687 106.234 118.028 107.011 118.633C107.886 119.326 108.241 119.394 108.713 118.946C108.88 118.799 109.647 117.911 110.434 116.975C111.919 115.209 112.067 114.936 111.712 114.594C111.634 114.506 111.437 114.438 111.29 114.438C111.053 114.438 110.817 114.672 109.647 116.067Z" fill="#FA7436"/>
<path d="M104.533 114.896C104.415 114.915 104.218 115.042 104.09 115.179L103.854 115.432V118.535V121.638L104.09 121.891L104.326 122.145H107.513H110.699L110.936 121.901C111.172 121.677 111.181 121.618 111.181 120.399C111.181 119.198 111.172 119.12 110.965 118.984C110.66 118.769 110.434 118.789 110.198 119.042C110.031 119.218 110.001 119.384 110.001 120.116V120.974H107.493H104.985L105.005 118.506L105.034 116.047L106.431 116.018C107.808 115.998 107.837 115.989 107.995 115.745C108.201 115.442 108.064 115.062 107.68 114.925C107.444 114.827 104.965 114.808 104.533 114.896Z" fill="#FA7436"/>
<path d="M116.856 115.491C116.649 115.716 116.64 115.999 116.827 116.252C116.964 116.428 117.141 116.438 120.79 116.467C122.885 116.477 124.705 116.467 124.823 116.438C125.324 116.321 125.511 115.784 125.167 115.482C125 115.335 124.567 115.316 120.997 115.316C117.259 115.316 117.004 115.326 116.856 115.491Z" fill="#FA7436"/>
<path d="M135.022 115.559C134.835 115.842 134.914 116.145 135.229 116.35C135.416 116.477 135.858 116.486 138.032 116.467C140.451 116.438 140.619 116.428 140.747 116.252C140.933 115.989 140.924 115.667 140.707 115.481C140.55 115.335 140.206 115.316 137.855 115.316H135.18L135.022 115.559Z" fill="#FA7436"/>
<path d="M117.082 120.165C116.689 120.302 116.561 120.838 116.866 121.102C117.014 121.238 117.279 121.268 118.322 121.268C119.728 121.268 119.836 121.229 119.836 120.721C119.836 120.194 119.581 120.097 118.312 120.107C117.722 120.107 117.161 120.136 117.082 120.165Z" fill="#FA7436"/>
<path d="M105.44 209.168C104.272 209.168 103.216 208.968 102.272 208.568C101.344 208.168 100.608 207.592 100.064 206.84C99.52 206.088 99.24 205.2 99.224 204.176H102.824C102.872 204.864 103.112 205.408 103.544 205.808C103.992 206.208 104.6 206.408 105.368 206.408C106.152 206.408 106.768 206.224 107.216 205.856C107.664 205.472 107.888 204.976 107.888 204.368C107.888 203.872 107.736 203.464 107.432 203.144C107.128 202.824 106.744 202.576 106.28 202.4C105.832 202.208 105.208 202 104.408 201.776C103.32 201.456 102.432 201.144 101.744 200.84C101.072 200.52 100.488 200.048 99.992 199.424C99.512 198.784 99.272 197.936 99.272 196.88C99.272 195.888 99.52 195.024 100.016 194.288C100.512 193.552 101.208 192.992 102.104 192.608C103 192.208 104.024 192.008 105.176 192.008C106.904 192.008 108.304 192.432 109.376 193.28C110.464 194.112 111.064 195.28 111.176 196.784H107.48C107.448 196.208 107.2 195.736 106.736 195.368C106.288 194.984 105.688 194.792 104.936 194.792C104.28 194.792 103.752 194.96 103.352 195.296C102.968 195.632 102.776 196.12 102.776 196.76C102.776 197.208 102.92 197.584 103.208 197.888C103.512 198.176 103.88 198.416 104.312 198.608C104.76 198.784 105.384 198.992 106.184 199.232C107.272 199.552 108.16 199.872 108.848 200.192C109.536 200.512 110.128 200.992 110.624 201.632C111.12 202.272 111.368 203.112 111.368 204.152C111.368 205.048 111.136 205.88 110.672 206.648C110.208 207.416 109.528 208.032 108.632 208.496C107.736 208.944 106.672 209.168 105.44 209.168ZM115.985 194.12C115.393 194.12 114.897 193.936 114.497 193.568C114.113 193.184 113.921 192.712 113.921 192.152C113.921 191.592 114.113 191.128 114.497 190.76C114.897 190.376 115.393 190.184 115.985 190.184C116.577 190.184 117.065 190.376 117.449 190.76C117.849 191.128 118.049 191.592 118.049 192.152C118.049 192.712 117.849 193.184 117.449 193.568C117.065 193.936 116.577 194.12 115.985 194.12ZM117.641 195.704V209H114.281V195.704H117.641ZM126.169 195.488C127.161 195.488 128.033 195.688 128.785 196.088C129.537 196.472 130.129 196.976 130.561 197.6V195.704H133.945V209.096C133.945 210.328 133.697 211.424 133.201 212.384C132.705 213.36 131.961 214.128 130.969 214.688C129.977 215.264 128.777 215.552 127.369 215.552C125.481 215.552 123.929 215.112 122.713 214.232C121.513 213.352 120.833 212.152 120.673 210.632H124.009C124.185 211.24 124.561 211.72 125.137 212.072C125.729 212.44 126.441 212.624 127.273 212.624C128.249 212.624 129.041 212.328 129.649 211.736C130.257 211.16 130.561 210.28 130.561 209.096V207.032C130.129 207.656 129.529 208.176 128.761 208.592C128.009 209.008 127.145 209.216 126.169 209.216C125.049 209.216 124.025 208.928 123.097 208.352C122.169 207.776 121.433 206.968 120.889 205.928C120.361 204.872 120.097 203.664 120.097 202.304C120.097 200.96 120.361 199.768 120.889 198.728C121.433 197.688 122.161 196.888 123.073 196.328C124.001 195.768 125.033 195.488 126.169 195.488ZM130.561 202.352C130.561 201.536 130.401 200.84 130.081 200.264C129.761 199.672 129.329 199.224 128.785 198.92C128.241 198.6 127.657 198.44 127.033 198.44C126.409 198.44 125.833 198.592 125.305 198.896C124.777 199.2 124.345 199.648 124.009 200.24C123.689 200.816 123.529 201.504 123.529 202.304C123.529 203.104 123.689 203.808 124.009 204.416C124.345 205.008 124.777 205.464 125.305 205.784C125.849 206.104 126.425 206.264 127.033 206.264C127.657 206.264 128.241 206.112 128.785 205.808C129.329 205.488 129.761 205.04 130.081 204.464C130.401 203.872 130.561 203.168 130.561 202.352ZM144.594 195.512C146.178 195.512 147.458 196.016 148.434 197.024C149.41 198.016 149.898 199.408 149.898 201.2V209H146.538V201.656C146.538 200.6 146.274 199.792 145.746 199.232C145.218 198.656 144.498 198.368 143.586 198.368C142.658 198.368 141.922 198.656 141.378 199.232C140.85 199.792 140.586 200.6 140.586 201.656V209H137.226V195.704H140.586V197.36C141.034 196.784 141.602 196.336 142.29 196.016C142.994 195.68 143.762 195.512 144.594 195.512ZM162.124 192.248V202.616C162.124 203.752 162.42 204.624 163.012 205.232C163.604 205.824 164.436 206.12 165.508 206.12C166.596 206.12 167.436 205.824 168.028 205.232C168.62 204.624 168.916 203.752 168.916 202.616V192.248H172.3V202.592C172.3 204.016 171.988 205.224 171.364 206.216C170.756 207.192 169.932 207.928 168.892 208.424C167.868 208.92 166.724 209.168 165.46 209.168C164.212 209.168 163.076 208.92 162.052 208.424C161.044 207.928 160.244 207.192 159.652 206.216C159.06 205.224 158.764 204.016 158.764 202.592V192.248H162.124ZM178.907 197.624C179.339 197.016 179.931 196.512 180.683 196.112C181.451 195.696 182.323 195.488 183.299 195.488C184.435 195.488 185.459 195.768 186.371 196.328C187.299 196.888 188.027 197.688 188.555 198.728C189.099 199.752 189.371 200.944 189.371 202.304C189.371 203.664 189.099 204.872 188.555 205.928C188.027 206.968 187.299 207.776 186.371 208.352C185.459 208.928 184.435 209.216 183.299 209.216C182.323 209.216 181.459 209.016 180.707 208.616C179.971 208.216 179.371 207.712 178.907 207.104V215.336H175.547V195.704H178.907V197.624ZM185.939 202.304C185.939 201.504 185.771 200.816 185.435 200.24C185.115 199.648 184.683 199.2 184.139 198.896C183.611 198.592 183.035 198.44 182.411 198.44C181.803 198.44 181.227 198.6 180.683 198.92C180.155 199.224 179.723 199.672 179.387 200.264C179.067 200.856 178.907 201.552 178.907 202.352C178.907 203.152 179.067 203.848 179.387 204.44C179.723 205.032 180.155 205.488 180.683 205.808C181.227 206.112 181.803 206.264 182.411 206.264C183.035 206.264 183.611 206.104 184.139 205.784C184.683 205.464 185.115 205.008 185.435 204.416C185.771 203.824 185.939 203.12 185.939 202.304Z" fill="#222222"/>
<path d="M98.688 247.416C98.688 246.328 98.9333 245.352 99.424 244.488C99.9147 243.613 100.581 242.931 101.424 242.44C102.277 241.949 103.221 241.704 104.256 241.704C105.472 241.704 106.533 241.997 107.44 242.584C108.347 243.171 109.008 244.003 109.424 245.08H107.68C107.371 244.408 106.923 243.891 106.336 243.528C105.76 243.165 105.067 242.984 104.256 242.984C103.477 242.984 102.779 243.165 102.16 243.528C101.541 243.891 101.056 244.408 100.704 245.08C100.352 245.741 100.176 246.52 100.176 247.416C100.176 248.301 100.352 249.08 100.704 249.752C101.056 250.413 101.541 250.925 102.16 251.288C102.779 251.651 103.477 251.832 104.256 251.832C105.067 251.832 105.76 251.656 106.336 251.304C106.923 250.941 107.371 250.424 107.68 249.752H109.424C109.008 250.819 108.347 251.645 107.44 252.232C106.533 252.808 105.472 253.096 104.256 253.096C103.221 253.096 102.277 252.856 101.424 252.376C100.581 251.885 99.9147 251.208 99.424 250.344C98.9333 249.48 98.688 248.504 98.688 247.416ZM115.415 253.144C114.594 253.144 113.847 252.957 113.175 252.584C112.514 252.211 111.991 251.683 111.607 251C111.234 250.307 111.047 249.507 111.047 248.6C111.047 247.704 111.239 246.915 111.623 246.232C112.018 245.539 112.551 245.011 113.223 244.648C113.895 244.275 114.647 244.088 115.479 244.088C116.311 244.088 117.063 244.275 117.735 244.648C118.407 245.011 118.935 245.533 119.319 246.216C119.714 246.899 119.911 247.693 119.911 248.6C119.911 249.507 119.709 250.307 119.303 251C118.909 251.683 118.37 252.211 117.687 252.584C117.005 252.957 116.247 253.144 115.415 253.144ZM115.415 251.864C115.938 251.864 116.429 251.741 116.887 251.496C117.346 251.251 117.714 250.883 117.991 250.392C118.279 249.901 118.423 249.304 118.423 248.6C118.423 247.896 118.285 247.299 118.007 246.808C117.73 246.317 117.367 245.955 116.919 245.72C116.471 245.475 115.986 245.352 115.463 245.352C114.93 245.352 114.439 245.475 113.991 245.72C113.554 245.955 113.202 246.317 112.935 246.808C112.669 247.299 112.535 247.896 112.535 248.6C112.535 249.315 112.663 249.917 112.919 250.408C113.186 250.899 113.538 251.267 113.975 251.512C114.413 251.747 114.893 251.864 115.415 251.864ZM132.37 244.072C133.052 244.072 133.66 244.216 134.194 244.504C134.727 244.781 135.148 245.203 135.458 245.768C135.767 246.333 135.922 247.021 135.922 247.832V253H134.482V248.04C134.482 247.165 134.263 246.499 133.826 246.04C133.399 245.571 132.818 245.336 132.082 245.336C131.324 245.336 130.722 245.581 130.274 246.072C129.826 246.552 129.602 247.251 129.602 248.168V253H128.162V248.04C128.162 247.165 127.943 246.499 127.506 246.04C127.079 245.571 126.498 245.336 125.762 245.336C125.004 245.336 124.402 245.581 123.954 246.072C123.506 246.552 123.282 247.251 123.282 248.168V253H121.826V244.232H123.282V245.496C123.57 245.037 123.954 244.685 124.434 244.44C124.924 244.195 125.463 244.072 126.05 244.072C126.786 244.072 127.436 244.237 128.002 244.568C128.567 244.899 128.988 245.384 129.266 246.024C129.511 245.405 129.916 244.925 130.482 244.584C131.047 244.243 131.676 244.072 132.37 244.072ZM139.766 245.848C140.054 245.347 140.481 244.931 141.046 244.6C141.622 244.259 142.289 244.088 143.046 244.088C143.825 244.088 144.529 244.275 145.158 244.648C145.798 245.021 146.299 245.549 146.662 246.232C147.025 246.904 147.206 247.688 147.206 248.584C147.206 249.469 147.025 250.259 146.662 250.952C146.299 251.645 145.798 252.184 145.158 252.568C144.529 252.952 143.825 253.144 143.046 253.144C142.299 253.144 141.638 252.979 141.062 252.648C140.497 252.307 140.065 251.885 139.766 251.384V257.16H138.31V244.232H139.766V245.848ZM145.718 248.584C145.718 247.923 145.585 247.347 145.318 246.856C145.051 246.365 144.689 245.992 144.23 245.736C143.782 245.48 143.286 245.352 142.742 245.352C142.209 245.352 141.713 245.485 141.254 245.752C140.806 246.008 140.443 246.387 140.166 246.888C139.899 247.379 139.766 247.949 139.766 248.6C139.766 249.261 139.899 249.843 140.166 250.344C140.443 250.835 140.806 251.213 141.254 251.48C141.713 251.736 142.209 251.864 142.742 251.864C143.286 251.864 143.782 251.736 144.23 251.48C144.689 251.213 145.051 250.835 145.318 250.344C145.585 249.843 145.718 249.256 145.718 248.584ZM150.579 241.16V253H149.123V241.16H150.579ZM161.06 248.28C161.06 248.557 161.044 248.851 161.012 249.16H154.004C154.057 250.024 154.351 250.701 154.884 251.192C155.428 251.672 156.084 251.912 156.852 251.912C157.481 251.912 158.004 251.768 158.42 251.48C158.847 251.181 159.145 250.787 159.316 250.296H160.884C160.649 251.139 160.18 251.827 159.476 252.36C158.772 252.883 157.897 253.144 156.852 253.144C156.02 253.144 155.273 252.957 154.612 252.584C153.961 252.211 153.449 251.683 153.076 251C152.703 250.307 152.516 249.507 152.516 248.6C152.516 247.693 152.697 246.899 153.06 246.216C153.423 245.533 153.929 245.011 154.58 244.648C155.241 244.275 155.999 244.088 156.852 244.088C157.684 244.088 158.42 244.269 159.06 244.632C159.7 244.995 160.191 245.496 160.532 246.136C160.884 246.765 161.06 247.48 161.06 248.28ZM159.556 247.976C159.556 247.421 159.433 246.947 159.188 246.552C158.943 246.147 158.607 245.843 158.18 245.64C157.764 245.427 157.3 245.32 156.788 245.32C156.052 245.32 155.423 245.555 154.9 246.024C154.388 246.493 154.095 247.144 154.02 247.976H159.556ZM164.758 245.432V250.6C164.758 251.027 164.849 251.331 165.03 251.512C165.211 251.683 165.526 251.768 165.974 251.768H167.046V253H165.734C164.923 253 164.315 252.813 163.91 252.44C163.505 252.067 163.302 251.453 163.302 250.6V245.432H162.166V244.232H163.302V242.024H164.758V244.232H167.046V245.432H164.758ZM176.81 248.28C176.81 248.557 176.794 248.851 176.762 249.16H169.754C169.807 250.024 170.101 250.701 170.634 251.192C171.178 251.672 171.834 251.912 172.602 251.912C173.231 251.912 173.754 251.768 174.17 251.48C174.597 251.181 174.895 250.787 175.066 250.296H176.634C176.399 251.139 175.93 251.827 175.226 252.36C174.522 252.883 173.647 253.144 172.602 253.144C171.77 253.144 171.023 252.957 170.362 252.584C169.711 252.211 169.199 251.683 168.826 251C168.453 250.307 168.266 249.507 168.266 248.6C168.266 247.693 168.447 246.899 168.81 246.216C169.173 245.533 169.679 245.011 170.33 244.648C170.991 244.275 171.749 244.088 172.602 244.088C173.434 244.088 174.17 244.269 174.81 244.632C175.45 244.995 175.941 245.496 176.282 246.136C176.634 246.765 176.81 247.48 176.81 248.28ZM175.306 247.976C175.306 247.421 175.183 246.947 174.938 246.552C174.693 246.147 174.357 245.843 173.93 245.64C173.514 245.427 173.05 245.32 172.538 245.32C171.802 245.32 171.173 245.555 170.65 246.024C170.138 246.493 169.845 247.144 169.77 247.976H175.306ZM181.836 253.144C181.164 253.144 180.561 253.032 180.028 252.808C179.495 252.573 179.073 252.253 178.764 251.848C178.455 251.432 178.284 250.957 178.252 250.424H179.756C179.799 250.861 180.001 251.219 180.364 251.496C180.737 251.773 181.223 251.912 181.82 251.912C182.375 251.912 182.812 251.789 183.132 251.544C183.452 251.299 183.612 250.989 183.612 250.616C183.612 250.232 183.441 249.949 183.1 249.768C182.759 249.576 182.231 249.389 181.516 249.208C180.865 249.037 180.332 248.867 179.916 248.696C179.511 248.515 179.159 248.253 178.86 247.912C178.572 247.56 178.428 247.101 178.428 246.536C178.428 246.088 178.561 245.677 178.828 245.304C179.095 244.931 179.473 244.637 179.964 244.424C180.455 244.2 181.015 244.088 181.644 244.088C182.615 244.088 183.399 244.333 183.996 244.824C184.593 245.315 184.913 245.987 184.956 246.84H183.5C183.468 246.381 183.281 246.013 182.94 245.736C182.609 245.459 182.161 245.32 181.596 245.32C181.073 245.32 180.657 245.432 180.348 245.656C180.039 245.88 179.884 246.173 179.884 246.536C179.884 246.824 179.975 247.064 180.156 247.256C180.348 247.437 180.583 247.587 180.86 247.704C181.148 247.811 181.543 247.933 182.044 248.072C182.673 248.243 183.185 248.413 183.58 248.584C183.975 248.744 184.311 248.989 184.588 249.32C184.876 249.651 185.025 250.083 185.036 250.616C185.036 251.096 184.903 251.528 184.636 251.912C184.369 252.296 183.991 252.6 183.5 252.824C183.02 253.037 182.465 253.144 181.836 253.144ZM190.813 248.584C190.813 247.688 190.994 246.904 191.357 246.232C191.72 245.549 192.216 245.021 192.845 244.648C193.485 244.275 194.194 244.088 194.973 244.088C195.741 244.088 196.408 244.253 196.973 244.584C197.538 244.915 197.96 245.331 198.237 245.832V244.232H199.709V253H198.237V251.368C197.949 251.88 197.517 252.307 196.941 252.648C196.376 252.979 195.714 253.144 194.957 253.144C194.178 253.144 193.474 252.952 192.845 252.568C192.216 252.184 191.72 251.645 191.357 250.952C190.994 250.259 190.813 249.469 190.813 248.584ZM198.237 248.6C198.237 247.939 198.104 247.363 197.837 246.872C197.57 246.381 197.208 246.008 196.749 245.752C196.301 245.485 195.805 245.352 195.261 245.352C194.717 245.352 194.221 245.48 193.773 245.736C193.325 245.992 192.968 246.365 192.701 246.856C192.434 247.347 192.301 247.923 192.301 248.584C192.301 249.256 192.434 249.843 192.701 250.344C192.968 250.835 193.325 251.213 193.773 251.48C194.221 251.736 194.717 251.864 195.261 251.864C195.805 251.864 196.301 251.736 196.749 251.48C197.208 251.213 197.57 250.835 197.837 250.344C198.104 249.843 198.237 249.261 198.237 248.6ZM203.626 241.16V253H202.17V241.16H203.626ZM207.563 241.16V253H206.107V241.16H207.563ZM216.086 245.432V250.6C216.086 251.027 216.177 251.331 216.358 251.512C216.539 251.683 216.854 251.768 217.302 251.768H218.374V253H217.062C216.251 253 215.643 252.813 215.238 252.44C214.833 252.067 214.63 251.453 214.63 250.6V245.432H213.494V244.232H214.63V242.024H216.086V244.232H218.374V245.432H216.086ZM224.49 244.072C225.152 244.072 225.749 244.216 226.282 244.504C226.816 244.781 227.232 245.203 227.53 245.768C227.84 246.333 227.994 247.021 227.994 247.832V253H226.554V248.04C226.554 247.165 226.336 246.499 225.898 246.04C225.461 245.571 224.864 245.336 224.106 245.336C223.338 245.336 222.725 245.576 222.266 246.056C221.818 246.536 221.594 247.235 221.594 248.152V253H220.138V241.16H221.594V245.48C221.882 245.032 222.277 244.685 222.778 244.44C223.29 244.195 223.861 244.072 224.49 244.072ZM238.373 248.28C238.373 248.557 238.357 248.851 238.325 249.16H231.317C231.37 250.024 231.663 250.701 232.197 251.192C232.741 251.672 233.397 251.912 234.165 251.912C234.794 251.912 235.317 251.768 235.733 251.48C236.159 251.181 236.458 250.787 236.629 250.296H238.197C237.962 251.139 237.493 251.827 236.789 252.36C236.085 252.883 235.21 253.144 234.165 253.144C233.333 253.144 232.586 252.957 231.925 252.584C231.274 252.211 230.762 251.683 230.389 251C230.015 250.307 229.829 249.507 229.829 248.6C229.829 247.693 230.01 246.899 230.373 246.216C230.735 245.533 231.242 245.011 231.893 244.648C232.554 244.275 233.311 244.088 234.165 244.088C234.997 244.088 235.733 244.269 236.373 244.632C237.013 244.995 237.503 245.496 237.845 246.136C238.197 246.765 238.373 247.48 238.373 248.28ZM236.869 247.976C236.869 247.421 236.746 246.947 236.501 246.552C236.255 246.147 235.919 245.843 235.493 245.64C235.077 245.427 234.613 245.32 234.101 245.32C233.365 245.32 232.735 245.555 232.213 246.024C231.701 246.493 231.407 247.144 231.333 247.976H236.869ZM256.24 244.232L253.504 253H252L249.888 246.04L247.776 253H246.272L243.52 244.232H245.008L247.024 251.592L249.2 244.232H250.688L252.816 251.608L254.8 244.232H256.24ZM261.509 253.144C260.688 253.144 259.941 252.957 259.269 252.584C258.608 252.211 258.085 251.683 257.701 251C257.328 250.307 257.141 249.507 257.141 248.6C257.141 247.704 257.333 246.915 257.717 246.232C258.112 245.539 258.645 245.011 259.317 244.648C259.989 244.275 260.741 244.088 261.573 244.088C262.405 244.088 263.157 244.275 263.829 244.648C264.501 245.011 265.029 245.533 265.413 246.216C265.808 246.899 266.005 247.693 266.005 248.6C266.005 249.507 265.802 250.307 265.397 251C265.002 251.683 264.464 252.211 263.781 252.584C263.098 252.957 262.341 253.144 261.509 253.144ZM261.509 251.864C262.032 251.864 262.522 251.741 262.981 251.496C263.44 251.251 263.808 250.883 264.085 250.392C264.373 249.901 264.517 249.304 264.517 248.6C264.517 247.896 264.378 247.299 264.101 246.808C263.824 246.317 263.461 245.955 263.013 245.72C262.565 245.475 262.08 245.352 261.557 245.352C261.024 245.352 260.533 245.475 260.085 245.72C259.648 245.955 259.296 246.317 259.029 246.808C258.762 247.299 258.629 247.896 258.629 248.6C258.629 249.315 258.757 249.917 259.013 250.408C259.28 250.899 259.632 251.267 260.069 251.512C260.506 251.747 260.986 251.864 261.509 251.864ZM269.376 245.656C269.632 245.155 269.994 244.765 270.464 244.488C270.944 244.211 271.525 244.072 272.208 244.072V245.576H271.824C270.192 245.576 269.376 246.461 269.376 248.232V253H267.92V244.232H269.376V245.656ZM278.784 253L275.344 249.128V253H273.888V241.16H275.344V248.12L278.72 244.232H280.752L276.624 248.6L280.768 253H278.784ZM285.844 248.584C285.844 247.688 286.026 246.904 286.388 246.232C286.751 245.549 287.247 245.021 287.876 244.648C288.516 244.275 289.226 244.088 290.004 244.088C290.772 244.088 291.439 244.253 292.004 244.584C292.57 244.915 292.991 245.331 293.268 245.832V244.232H294.74V253H293.268V251.368C292.98 251.88 292.548 252.307 291.972 252.648C291.407 252.979 290.746 253.144 289.988 253.144C289.21 253.144 288.506 252.952 287.876 252.568C287.247 252.184 286.751 251.645 286.388 250.952C286.026 250.259 285.844 249.469 285.844 248.584ZM293.268 248.6C293.268 247.939 293.135 247.363 292.868 246.872C292.602 246.381 292.239 246.008 291.78 245.752C291.332 245.485 290.836 245.352 290.292 245.352C289.748 245.352 289.252 245.48 288.804 245.736C288.356 245.992 287.999 246.365 287.732 246.856C287.466 247.347 287.332 247.923 287.332 248.584C287.332 249.256 287.466 249.843 287.732 250.344C287.999 250.835 288.356 251.213 288.804 251.48C289.252 251.736 289.748 251.864 290.292 251.864C290.836 251.864 291.332 251.736 291.78 251.48C292.239 251.213 292.602 250.835 292.868 250.344C293.135 249.843 293.268 249.261 293.268 248.6ZM300.305 253.144C299.633 253.144 299.03 253.032 298.497 252.808C297.963 252.573 297.542 252.253 297.233 251.848C296.923 251.432 296.753 250.957 296.721 250.424H298.225C298.267 250.861 298.47 251.219 298.833 251.496C299.206 251.773 299.691 251.912 300.289 251.912C300.843 251.912 301.281 251.789 301.601 251.544C301.921 251.299 302.081 250.989 302.081 250.616C302.081 250.232 301.91 249.949 301.569 249.768C301.227 249.576 300.699 249.389 299.985 249.208C299.334 249.037 298.801 248.867 298.385 248.696C297.979 248.515 297.627 248.253 297.329 247.912C297.041 247.56 296.897 247.101 296.897 246.536C296.897 246.088 297.03 245.677 297.297 245.304C297.563 244.931 297.942 244.637 298.433 244.424C298.923 244.2 299.483 244.088 300.113 244.088C301.083 244.088 301.867 244.333 302.465 244.824C303.062 245.315 303.382 245.987 303.425 246.84H301.969C301.937 246.381 301.75 246.013 301.409 245.736C301.078 245.459 300.63 245.32 300.065 245.32C299.542 245.32 299.126 245.432 298.817 245.656C298.507 245.88 298.353 246.173 298.353 246.536C298.353 246.824 298.443 247.064 298.625 247.256C298.817 247.437 299.051 247.587 299.329 247.704C299.617 247.811 300.011 247.933 300.513 248.072C301.142 248.243 301.654 248.413 302.049 248.584C302.443 248.744 302.779 248.989 303.057 249.32C303.345 249.651 303.494 250.083 303.505 250.616C303.505 251.096 303.371 251.528 303.105 251.912C302.838 252.296 302.459 252.6 301.969 252.824C301.489 253.037 300.934 253.144 300.305 253.144ZM308.664 253.144C307.992 253.144 307.389 253.032 306.856 252.808C306.323 252.573 305.901 252.253 305.592 251.848C305.283 251.432 305.112 250.957 305.08 250.424H306.584C306.627 250.861 306.829 251.219 307.192 251.496C307.565 251.773 308.051 251.912 308.648 251.912C309.203 251.912 309.64 251.789 309.96 251.544C310.28 251.299 310.44 250.989 310.44 250.616C310.44 250.232 310.269 249.949 309.928 249.768C309.587 249.576 309.059 249.389 308.344 249.208C307.693 249.037 307.16 248.867 306.744 248.696C306.339 248.515 305.987 248.253 305.688 247.912C305.4 247.56 305.256 247.101 305.256 246.536C305.256 246.088 305.389 245.677 305.656 245.304C305.923 244.931 306.301 244.637 306.792 244.424C307.283 244.2 307.843 244.088 308.472 244.088C309.443 244.088 310.227 244.333 310.824 244.824C311.421 245.315 311.741 245.987 311.784 246.84H310.328C310.296 246.381 310.109 246.013 309.768 245.736C309.437 245.459 308.989 245.32 308.424 245.32C307.901 245.32 307.485 245.432 307.176 245.656C306.867 245.88 306.712 246.173 306.712 246.536C306.712 246.824 306.803 247.064 306.984 247.256C307.176 247.437 307.411 247.587 307.688 247.704C307.976 247.811 308.371 247.933 308.872 248.072C309.501 248.243 310.013 248.413 310.408 248.584C310.803 248.744 311.139 248.989 311.416 249.32C311.704 249.651 311.853 250.083 311.864 250.616C311.864 251.096 311.731 251.528 311.464 251.912C311.197 252.296 310.819 252.6 310.328 252.824C309.848 253.037 309.293 253.144 308.664 253.144ZM317.744 253.144C316.922 253.144 316.176 252.957 315.504 252.584C314.842 252.211 314.32 251.683 313.936 251C313.562 250.307 313.376 249.507 313.376 248.6C313.376 247.704 313.568 246.915 313.952 246.232C314.346 245.539 314.88 245.011 315.552 244.648C316.224 244.275 316.976 244.088 317.808 244.088C318.64 244.088 319.392 244.275 320.064 244.648C320.736 245.011 321.264 245.533 321.648 246.216C322.042 246.899 322.24 247.693 322.24 248.6C322.24 249.507 322.037 250.307 321.632 251C321.237 251.683 320.698 252.211 320.016 252.584C319.333 252.957 318.576 253.144 317.744 253.144ZM317.744 251.864C318.266 251.864 318.757 251.741 319.216 251.496C319.674 251.251 320.042 250.883 320.32 250.392C320.608 249.901 320.752 249.304 320.752 248.6C320.752 247.896 320.613 247.299 320.336 246.808C320.058 246.317 319.696 245.955 319.248 245.72C318.8 245.475 318.314 245.352 317.792 245.352C317.258 245.352 316.768 245.475 316.32 245.72C315.882 245.955 315.53 246.317 315.264 246.808C314.997 247.299 314.864 247.896 314.864 248.6C314.864 249.315 314.992 249.917 315.248 250.408C315.514 250.899 315.866 251.267 316.304 251.512C316.741 251.747 317.221 251.864 317.744 251.864ZM323.61 248.6C323.61 247.693 323.791 246.904 324.154 246.232C324.517 245.549 325.018 245.021 325.658 244.648C326.309 244.275 327.05 244.088 327.882 244.088C328.959 244.088 329.845 244.349 330.538 244.872C331.242 245.395 331.706 246.12 331.93 247.048H330.362C330.213 246.515 329.919 246.093 329.482 245.784C329.055 245.475 328.522 245.32 327.882 245.32C327.05 245.32 326.378 245.608 325.866 246.184C325.354 246.749 325.098 247.555 325.098 248.6C325.098 249.656 325.354 250.472 325.866 251.048C326.378 251.624 327.05 251.912 327.882 251.912C328.522 251.912 329.055 251.763 329.482 251.464C329.909 251.165 330.202 250.739 330.362 250.184H331.93C331.695 251.08 331.226 251.8 330.522 252.344C329.818 252.877 328.938 253.144 327.882 253.144C327.05 253.144 326.309 252.957 325.658 252.584C325.018 252.211 324.517 251.683 324.154 251C323.791 250.317 323.61 249.517 323.61 248.6ZM334.625 242.808C334.347 242.808 334.113 242.712 333.921 242.52C333.729 242.328 333.633 242.093 333.633 241.816C333.633 241.539 333.729 241.304 333.921 241.112C334.113 240.92 334.347 240.824 334.625 240.824C334.891 240.824 335.115 240.92 335.297 241.112C335.489 241.304 335.585 241.539 335.585 241.816C335.585 242.093 335.489 242.328 335.297 242.52C335.115 242.712 334.891 242.808 334.625 242.808ZM335.329 244.232V253H333.873V244.232H335.329ZM337.266 248.584C337.266 247.688 337.447 246.904 337.81 246.232C338.173 245.549 338.669 245.021 339.298 244.648C339.938 244.275 340.647 244.088 341.426 244.088C342.194 244.088 342.861 244.253 343.426 244.584C343.991 244.915 344.413 245.331 344.69 245.832V244.232H346.162V253H344.69V251.368C344.402 251.88 343.97 252.307 343.394 252.648C342.829 252.979 342.167 253.144 341.41 253.144C340.631 253.144 339.927 252.952 339.298 252.568C338.669 252.184 338.173 251.645 337.81 250.952C337.447 250.259 337.266 249.469 337.266 248.584ZM344.69 248.6C344.69 247.939 344.557 247.363 344.29 246.872C344.023 246.381 343.661 246.008 343.202 245.752C342.754 245.485 342.258 245.352 341.714 245.352C341.17 245.352 340.674 245.48 340.226 245.736C339.778 245.992 339.421 246.365 339.154 246.856C338.887 247.347 338.754 247.923 338.754 248.584C338.754 249.256 338.887 249.843 339.154 250.344C339.421 250.835 339.778 251.213 340.226 251.48C340.674 251.736 341.17 251.864 341.714 251.864C342.258 251.864 342.754 251.736 343.202 251.48C343.661 251.213 344.023 250.835 344.29 250.344C344.557 249.843 344.69 249.261 344.69 248.6ZM350.399 245.432V250.6C350.399 251.027 350.489 251.331 350.671 251.512C350.852 251.683 351.167 251.768 351.615 251.768H352.687V253H351.375C350.564 253 349.956 252.813 349.551 252.44C349.145 252.067 348.943 251.453 348.943 250.6V245.432H347.807V244.232H348.943V242.024H350.399V244.232H352.687V245.432H350.399ZM362.451 248.28C362.451 248.557 362.435 248.851 362.403 249.16H355.395C355.448 250.024 355.741 250.701 356.275 251.192C356.819 251.672 357.475 251.912 358.243 251.912C358.872 251.912 359.395 251.768 359.811 251.48C360.237 251.181 360.536 250.787 360.707 250.296H362.275C362.04 251.139 361.571 251.827 360.867 252.36C360.163 252.883 359.288 253.144 358.243 253.144C357.411 253.144 356.664 252.957 356.003 252.584C355.352 252.211 354.84 251.683 354.467 251C354.093 250.307 353.907 249.507 353.907 248.6C353.907 247.693 354.088 246.899 354.451 246.216C354.813 245.533 355.32 245.011 355.971 244.648C356.632 244.275 357.389 244.088 358.243 244.088C359.075 244.088 359.811 244.269 360.451 244.632C361.091 244.995 361.581 245.496 361.923 246.136C362.275 246.765 362.451 247.48 362.451 248.28ZM360.947 247.976C360.947 247.421 360.824 246.947 360.579 246.552C360.333 246.147 359.997 245.843 359.571 245.64C359.155 245.427 358.691 245.32 358.179 245.32C357.443 245.32 356.813 245.555 356.291 246.024C355.779 246.493 355.485 247.144 355.411 247.976H360.947ZM363.829 248.584C363.829 247.688 364.01 246.904 364.373 246.232C364.735 245.549 365.231 245.021 365.861 244.648C366.501 244.275 367.215 244.088 368.005 244.088C368.687 244.088 369.322 244.248 369.909 244.568C370.495 244.877 370.943 245.288 371.253 245.8V241.16H372.725V253H371.253V251.352C370.965 251.875 370.538 252.307 369.973 252.648C369.407 252.979 368.746 253.144 367.989 253.144C367.21 253.144 366.501 252.952 365.861 252.568C365.231 252.184 364.735 251.645 364.373 250.952C364.01 250.259 363.829 249.469 363.829 248.584ZM371.253 248.6C371.253 247.939 371.119 247.363 370.853 246.872C370.586 246.381 370.223 246.008 369.765 245.752C369.317 245.485 368.821 245.352 368.277 245.352C367.733 245.352 367.237 245.48 366.789 245.736C366.341 245.992 365.983 246.365 365.717 246.856C365.45 247.347 365.317 247.923 365.317 248.584C365.317 249.256 365.45 249.843 365.717 250.344C365.983 250.835 366.341 251.213 366.789 251.48C367.237 251.736 367.733 251.864 368.277 251.864C368.821 251.864 369.317 251.736 369.765 251.48C370.223 251.213 370.586 250.835 370.853 250.344C371.119 249.843 371.253 249.261 371.253 248.6ZM110.912 270.232L108.176 279H106.672L104.56 272.04L102.448 279H100.944L98.192 270.232H99.68L101.696 277.592L103.872 270.232H105.36L107.488 277.608L109.472 270.232H110.912ZM113.109 268.808C112.832 268.808 112.597 268.712 112.405 268.52C112.213 268.328 112.117 268.093 112.117 267.816C112.117 267.539 112.213 267.304 112.405 267.112C112.597 266.92 112.832 266.824 113.109 266.824C113.376 266.824 113.6 266.92 113.781 267.112C113.973 267.304 114.069 267.539 114.069 267.816C114.069 268.093 113.973 268.328 113.781 268.52C113.6 268.712 113.376 268.808 113.109 268.808ZM113.813 270.232V279H112.357V270.232H113.813ZM118.071 271.432V276.6C118.071 277.027 118.161 277.331 118.343 277.512C118.524 277.683 118.839 277.768 119.286 277.768H120.359V279H119.047C118.236 279 117.628 278.813 117.223 278.44C116.817 278.067 116.615 277.453 116.615 276.6V271.432H115.479V270.232H116.615V268.024H118.071V270.232H120.359V271.432H118.071ZM126.475 270.072C127.136 270.072 127.733 270.216 128.267 270.504C128.8 270.781 129.216 271.203 129.515 271.768C129.824 272.333 129.979 273.021 129.979 273.832V279H128.539V274.04C128.539 273.165 128.32 272.499 127.883 272.04C127.445 271.571 126.848 271.336 126.091 271.336C125.323 271.336 124.709 271.576 124.251 272.056C123.803 272.536 123.579 273.235 123.579 274.152V279H122.123V267.16H123.579V271.48C123.867 271.032 124.261 270.685 124.763 270.44C125.275 270.195 125.845 270.072 126.475 270.072ZM138.079 271.848C138.367 271.347 138.793 270.931 139.359 270.6C139.935 270.259 140.601 270.088 141.359 270.088C142.137 270.088 142.841 270.275 143.471 270.648C144.111 271.021 144.612 271.549 144.975 272.232C145.337 272.904 145.519 273.688 145.519 274.584C145.519 275.469 145.337 276.259 144.975 276.952C144.612 277.645 144.111 278.184 143.471 278.568C142.841 278.952 142.137 279.144 141.359 279.144C140.612 279.144 139.951 278.979 139.375 278.648C138.809 278.307 138.377 277.885 138.079 277.384V283.16H136.623V270.232H138.079V271.848ZM144.031 274.584C144.031 273.923 143.897 273.347 143.631 272.856C143.364 272.365 143.001 271.992 142.543 271.736C142.095 271.48 141.599 271.352 141.055 271.352C140.521 271.352 140.025 271.485 139.567 271.752C139.119 272.008 138.756 272.387 138.479 272.888C138.212 273.379 138.079 273.949 138.079 274.6C138.079 275.261 138.212 275.843 138.479 276.344C138.756 276.835 139.119 277.213 139.567 277.48C140.025 277.736 140.521 277.864 141.055 277.864C141.599 277.864 142.095 277.736 142.543 277.48C143.001 277.213 143.364 276.835 143.631 276.344C143.897 275.843 144.031 275.256 144.031 274.584ZM148.891 267.16V279H147.435V267.16H148.891ZM150.829 274.584C150.829 273.688 151.01 272.904 151.373 272.232C151.735 271.549 152.231 271.021 152.861 270.648C153.501 270.275 154.21 270.088 154.989 270.088C155.757 270.088 156.423 270.253 156.989 270.584C157.554 270.915 157.975 271.331 158.253 271.832V270.232H159.725V279H158.253V277.368C157.965 277.88 157.533 278.307 156.957 278.648C156.391 278.979 155.73 279.144 154.973 279.144C154.194 279.144 153.49 278.952 152.861 278.568C152.231 278.184 151.735 277.645 151.373 276.952C151.01 276.259 150.829 275.469 150.829 274.584ZM158.253 274.6C158.253 273.939 158.119 273.363 157.853 272.872C157.586 272.381 157.223 272.008 156.765 271.752C156.317 271.485 155.821 271.352 155.277 271.352C154.733 271.352 154.237 271.48 153.789 271.736C153.341 271.992 152.983 272.365 152.717 272.856C152.45 273.347 152.317 273.923 152.317 274.584C152.317 275.256 152.45 275.843 152.717 276.344C152.983 276.835 153.341 277.213 153.789 277.48C154.237 277.736 154.733 277.864 155.277 277.864C155.821 277.864 156.317 277.736 156.765 277.48C157.223 277.213 157.586 276.835 157.853 276.344C158.119 275.843 158.253 275.261 158.253 274.6ZM166.457 270.072C167.524 270.072 168.388 270.397 169.049 271.048C169.71 271.688 170.041 272.616 170.041 273.832V279H168.601V274.04C168.601 273.165 168.382 272.499 167.945 272.04C167.508 271.571 166.91 271.336 166.153 271.336C165.385 271.336 164.772 271.576 164.313 272.056C163.865 272.536 163.641 273.235 163.641 274.152V279H162.185V270.232H163.641V271.48C163.929 271.032 164.318 270.685 164.809 270.44C165.31 270.195 165.86 270.072 166.457 270.072ZM176.692 270.072C177.758 270.072 178.622 270.397 179.284 271.048C179.945 271.688 180.276 272.616 180.276 273.832V279H178.836V274.04C178.836 273.165 178.617 272.499 178.18 272.04C177.742 271.571 177.145 271.336 176.388 271.336C175.62 271.336 175.006 271.576 174.548 272.056C174.1 272.536 173.876 273.235 173.876 274.152V279H172.42V270.232H173.876V271.48C174.164 271.032 174.553 270.685 175.044 270.44C175.545 270.195 176.094 270.072 176.692 270.072ZM183.406 268.808C183.129 268.808 182.894 268.712 182.702 268.52C182.51 268.328 182.414 268.093 182.414 267.816C182.414 267.539 182.51 267.304 182.702 267.112C182.894 266.92 183.129 266.824 183.406 266.824C183.673 266.824 183.897 266.92 184.078 267.112C184.27 267.304 184.366 267.539 184.366 267.816C184.366 268.093 184.27 268.328 184.078 268.52C183.897 268.712 183.673 268.808 183.406 268.808ZM184.11 270.232V279H182.654V270.232H184.11ZM190.863 270.072C191.93 270.072 192.794 270.397 193.455 271.048C194.117 271.688 194.447 272.616 194.447 273.832V279H193.007V274.04C193.007 273.165 192.789 272.499 192.351 272.04C191.914 271.571 191.317 271.336 190.559 271.336C189.791 271.336 189.178 271.576 188.719 272.056C188.271 272.536 188.047 273.235 188.047 274.152V279H186.591V270.232H188.047V271.48C188.335 271.032 188.725 270.685 189.215 270.44C189.717 270.195 190.266 270.072 190.863 270.072ZM200.442 270.088C201.199 270.088 201.86 270.253 202.426 270.584C203.002 270.915 203.428 271.331 203.706 271.832V270.232H205.178V279.192C205.178 279.992 205.007 280.701 204.666 281.32C204.324 281.949 203.834 282.44 203.194 282.792C202.564 283.144 201.828 283.32 200.986 283.32C199.834 283.32 198.874 283.048 198.106 282.504C197.338 281.96 196.884 281.219 196.746 280.28H198.186C198.346 280.813 198.676 281.24 199.178 281.56C199.679 281.891 200.282 282.056 200.986 282.056C201.786 282.056 202.436 281.805 202.938 281.304C203.45 280.803 203.706 280.099 203.706 279.192V277.352C203.418 277.864 202.991 278.291 202.426 278.632C201.86 278.973 201.199 279.144 200.442 279.144C199.663 279.144 198.954 278.952 198.314 278.568C197.684 278.184 197.188 277.645 196.826 276.952C196.463 276.259 196.282 275.469 196.282 274.584C196.282 273.688 196.463 272.904 196.826 272.232C197.188 271.549 197.684 271.021 198.314 270.648C198.954 270.275 199.663 270.088 200.442 270.088ZM203.706 274.6C203.706 273.939 203.572 273.363 203.306 272.872C203.039 272.381 202.676 272.008 202.218 271.752C201.77 271.485 201.274 271.352 200.73 271.352C200.186 271.352 199.69 271.48 199.242 271.736C198.794 271.992 198.436 272.365 198.17 272.856C197.903 273.347 197.77 273.923 197.77 274.584C197.77 275.256 197.903 275.843 198.17 276.344C198.436 276.835 198.794 277.213 199.242 277.48C199.69 277.736 200.186 277.864 200.73 277.864C201.274 277.864 201.77 277.736 202.218 277.48C202.676 277.213 203.039 276.835 203.306 276.344C203.572 275.843 203.706 275.261 203.706 274.6ZM211.36 274.584C211.36 273.688 211.541 272.904 211.904 272.232C212.267 271.549 212.763 271.021 213.392 270.648C214.032 270.275 214.741 270.088 215.52 270.088C216.288 270.088 216.955 270.253 217.52 270.584C218.085 270.915 218.507 271.331 218.784 271.832V270.232H220.256V279H218.784V277.368C218.496 277.88 218.064 278.307 217.488 278.648C216.923 278.979 216.261 279.144 215.504 279.144C214.725 279.144 214.021 278.952 213.392 278.568C212.763 278.184 212.267 277.645 211.904 276.952C211.541 276.259 211.36 275.469 211.36 274.584ZM218.784 274.6C218.784 273.939 218.651 273.363 218.384 272.872C218.117 272.381 217.755 272.008 217.296 271.752C216.848 271.485 216.352 271.352 215.808 271.352C215.264 271.352 214.768 271.48 214.32 271.736C213.872 271.992 213.515 272.365 213.248 272.856C212.981 273.347 212.848 273.923 212.848 274.584C212.848 275.256 212.981 275.843 213.248 276.344C213.515 276.835 213.872 277.213 214.32 277.48C214.768 277.736 215.264 277.864 215.808 277.864C216.352 277.864 216.848 277.736 217.296 277.48C217.755 277.213 218.117 276.835 218.384 276.344C218.651 275.843 218.784 275.261 218.784 274.6ZM226.988 270.072C228.055 270.072 228.919 270.397 229.58 271.048C230.242 271.688 230.572 272.616 230.572 273.832V279H229.132V274.04C229.132 273.165 228.914 272.499 228.476 272.04C228.039 271.571 227.442 271.336 226.684 271.336C225.916 271.336 225.303 271.576 224.844 272.056C224.396 272.536 224.172 273.235 224.172 274.152V279H222.716V270.232H224.172V271.48C224.46 271.032 224.85 270.685 225.34 270.44C225.842 270.195 226.391 270.072 226.988 270.072ZM232.407 274.584C232.407 273.688 232.588 272.904 232.951 272.232C233.313 271.549 233.809 271.021 234.439 270.648C235.079 270.275 235.793 270.088 236.583 270.088C237.265 270.088 237.9 270.248 238.487 270.568C239.073 270.877 239.521 271.288 239.831 271.8V267.16H241.303V279H239.831V277.352C239.543 277.875 239.116 278.307 238.551 278.648C237.985 278.979 237.324 279.144 236.567 279.144C235.788 279.144 235.079 278.952 234.439 278.568C233.809 278.184 233.313 277.645 232.951 276.952C232.588 276.259 232.407 275.469 232.407 274.584ZM239.831 274.6C239.831 273.939 239.697 273.363 239.431 272.872C239.164 272.381 238.801 272.008 238.343 271.752C237.895 271.485 237.399 271.352 236.855 271.352C236.311 271.352 235.815 271.48 235.367 271.736C234.919 271.992 234.561 272.365 234.295 272.856C234.028 273.347 233.895 273.923 233.895 274.584C233.895 275.256 234.028 275.843 234.295 276.344C234.561 276.835 234.919 277.213 235.367 277.48C235.815 277.736 236.311 277.864 236.855 277.864C237.399 277.864 237.895 277.736 238.343 277.48C238.801 277.213 239.164 276.835 239.431 276.344C239.697 275.843 239.831 275.261 239.831 274.6ZM249.485 271.848C249.773 271.347 250.2 270.931 250.765 270.6C251.341 270.259 252.008 270.088 252.765 270.088C253.544 270.088 254.248 270.275 254.877 270.648C255.517 271.021 256.018 271.549 256.381 272.232C256.744 272.904 256.925 273.688 256.925 274.584C256.925 275.469 256.744 276.259 256.381 276.952C256.018 277.645 255.517 278.184 254.877 278.568C254.248 278.952 253.544 279.144 252.765 279.144C252.018 279.144 251.357 278.979 250.781 278.648C250.216 278.307 249.784 277.885 249.485 277.384V283.16H248.029V270.232H249.485V271.848ZM255.437 274.584C255.437 273.923 255.304 273.347 255.037 272.856C254.77 272.365 254.408 271.992 253.949 271.736C253.501 271.48 253.005 271.352 252.461 271.352C251.928 271.352 251.432 271.485 250.973 271.752C250.525 272.008 250.162 272.387 249.885 272.888C249.618 273.379 249.485 273.949 249.485 274.6C249.485 275.261 249.618 275.843 249.885 276.344C250.162 276.835 250.525 277.213 250.973 277.48C251.432 277.736 251.928 277.864 252.461 277.864C253.005 277.864 253.501 277.736 253.949 277.48C254.408 277.213 254.77 276.835 255.037 276.344C255.304 275.843 255.437 275.256 255.437 274.584ZM260.297 271.656C260.553 271.155 260.916 270.765 261.385 270.488C261.865 270.211 262.447 270.072 263.129 270.072V271.576H262.745C261.113 271.576 260.297 272.461 260.297 274.232V279H258.841V270.232H260.297V271.656ZM268.634 279.144C267.813 279.144 267.066 278.957 266.394 278.584C265.733 278.211 265.21 277.683 264.826 277C264.453 276.307 264.266 275.507 264.266 274.6C264.266 273.704 264.458 272.915 264.842 272.232C265.237 271.539 265.77 271.011 266.442 270.648C267.114 270.275 267.866 270.088 268.698 270.088C269.53 270.088 270.282 270.275 270.954 270.648C271.626 271.011 272.154 271.533 272.538 272.216C272.933 272.899 273.13 273.693 273.13 274.6C273.13 275.507 272.927 276.307 272.522 277C272.127 277.683 271.589 278.211 270.906 278.584C270.223 278.957 269.466 279.144 268.634 279.144ZM268.634 277.864C269.157 277.864 269.647 277.741 270.106 277.496C270.565 277.251 270.933 276.883 271.21 276.392C271.498 275.901 271.642 275.304 271.642 274.6C271.642 273.896 271.503 273.299 271.226 272.808C270.949 272.317 270.586 271.955 270.138 271.72C269.69 271.475 269.205 271.352 268.682 271.352C268.149 271.352 267.658 271.475 267.21 271.72C266.773 271.955 266.421 272.317 266.154 272.808C265.887 273.299 265.754 273.896 265.754 274.6C265.754 275.315 265.882 275.917 266.138 276.408C266.405 276.899 266.757 277.267 267.194 277.512C267.631 277.747 268.111 277.864 268.634 277.864ZM274.501 274.6C274.501 273.693 274.682 272.904 275.045 272.232C275.407 271.549 275.909 271.021 276.549 270.648C277.199 270.275 277.941 270.088 278.773 270.088C279.85 270.088 280.735 270.349 281.429 270.872C282.133 271.395 282.597 272.12 282.821 273.048H281.253C281.103 272.515 280.81 272.093 280.373 271.784C279.946 271.475 279.413 271.32 278.773 271.32C277.941 271.32 277.269 271.608 276.757 272.184C276.245 272.749 275.989 273.555 275.989 274.6C275.989 275.656 276.245 276.472 276.757 277.048C277.269 277.624 277.941 277.912 278.773 277.912C279.413 277.912 279.946 277.763 280.373 277.464C280.799 277.165 281.093 276.739 281.253 276.184H282.821C282.586 277.08 282.117 277.8 281.413 278.344C280.709 278.877 279.829 279.144 278.773 279.144C277.941 279.144 277.199 278.957 276.549 278.584C275.909 278.211 275.407 277.683 275.045 277C274.682 276.317 274.501 275.517 274.501 274.6ZM292.763 274.28C292.763 274.557 292.747 274.851 292.715 275.16H285.707C285.761 276.024 286.054 276.701 286.587 277.192C287.131 277.672 287.787 277.912 288.555 277.912C289.185 277.912 289.707 277.768 290.123 277.48C290.55 277.181 290.849 276.787 291.019 276.296H292.587C292.353 277.139 291.883 277.827 291.179 278.36C290.475 278.883 289.601 279.144 288.555 279.144C287.723 279.144 286.977 278.957 286.315 278.584C285.665 278.211 285.153 277.683 284.779 277C284.406 276.307 284.219 275.507 284.219 274.6C284.219 273.693 284.401 272.899 284.763 272.216C285.126 271.533 285.633 271.011 286.283 270.648C286.945 270.275 287.702 270.088 288.555 270.088C289.387 270.088 290.123 270.269 290.763 270.632C291.403 270.995 291.894 271.496 292.235 272.136C292.587 272.765 292.763 273.48 292.763 274.28ZM291.259 273.976C291.259 273.421 291.137 272.947 290.891 272.552C290.646 272.147 290.31 271.843 289.883 271.64C289.467 271.427 289.003 271.32 288.491 271.32C287.755 271.32 287.126 271.555 286.603 272.024C286.091 272.493 285.798 273.144 285.723 273.976H291.259ZM297.789 279.144C297.117 279.144 296.514 279.032 295.981 278.808C295.448 278.573 295.026 278.253 294.717 277.848C294.408 277.432 294.237 276.957 294.205 276.424H295.709C295.752 276.861 295.954 277.219 296.317 277.496C296.69 277.773 297.176 277.912 297.773 277.912C298.328 277.912 298.765 277.789 299.085 277.544C299.405 277.299 299.565 276.989 299.565 276.616C299.565 276.232 299.394 275.949 299.053 275.768C298.712 275.576 298.184 275.389 297.469 275.208C296.818 275.037 296.285 274.867 295.869 274.696C295.464 274.515 295.112 274.253 294.813 273.912C294.525 273.56 294.381 273.101 294.381 272.536C294.381 272.088 294.514 271.677 294.781 271.304C295.048 270.931 295.426 270.637 295.917 270.424C296.408 270.2 296.968 270.088 297.597 270.088C298.568 270.088 299.352 270.333 299.949 270.824C300.546 271.315 300.866 271.987 300.909 272.84H299.453C299.421 272.381 299.234 272.013 298.893 271.736C298.562 271.459 298.114 271.32 297.549 271.32C297.026 271.32 296.61 271.432 296.301 271.656C295.992 271.88 295.837 272.173 295.837 272.536C295.837 272.824 295.928 273.064 296.109 273.256C296.301 273.437 296.536 273.587 296.813 273.704C297.101 273.811 297.496 273.933 297.997 274.072C298.626 274.243 299.138 274.413 299.533 274.584C299.928 274.744 300.264 274.989 300.541 275.32C300.829 275.651 300.978 276.083 300.989 276.616C300.989 277.096 300.856 277.528 300.589 277.912C300.322 278.296 299.944 278.6 299.453 278.824C298.973 279.037 298.418 279.144 297.789 279.144ZM306.149 279.144C305.477 279.144 304.874 279.032 304.341 278.808C303.807 278.573 303.386 278.253 303.077 277.848C302.767 277.432 302.597 276.957 302.565 276.424H304.069C304.111 276.861 304.314 277.219 304.677 277.496C305.05 277.773 305.535 277.912 306.133 277.912C306.687 277.912 307.125 277.789 307.445 277.544C307.765 277.299 307.925 276.989 307.925 276.616C307.925 276.232 307.754 275.949 307.413 275.768C307.071 275.576 306.543 275.389 305.829 275.208C305.178 275.037 304.645 274.867 304.229 274.696C303.823 274.515 303.471 274.253 303.173 273.912C302.885 273.56 302.741 273.101 302.741 272.536C302.741 272.088 302.874 271.677 303.141 271.304C303.407 270.931 303.786 270.637 304.277 270.424C304.767 270.2 305.327 270.088 305.957 270.088C306.927 270.088 307.711 270.333 308.309 270.824C308.906 271.315 309.226 271.987 309.269 272.84H307.813C307.781 272.381 307.594 272.013 307.253 271.736C306.922 271.459 306.474 271.32 305.909 271.32C305.386 271.32 304.97 271.432 304.661 271.656C304.351 271.88 304.197 272.173 304.197 272.536C304.197 272.824 304.287 273.064 304.469 273.256C304.661 273.437 304.895 273.587 305.173 273.704C305.461 273.811 305.855 273.933 306.357 274.072C306.986 274.243 307.498 274.413 307.893 274.584C308.287 274.744 308.623 274.989 308.901 275.32C309.189 275.651 309.338 276.083 309.349 276.616C309.349 277.096 309.215 277.528 308.949 277.912C308.682 278.296 308.303 278.6 307.813 278.824C307.333 279.037 306.778 279.144 306.149 279.144ZM312.156 268.808C311.879 268.808 311.644 268.712 311.452 268.52C311.26 268.328 311.164 268.093 311.164 267.816C311.164 267.539 311.26 267.304 311.452 267.112C311.644 266.92 311.879 266.824 312.156 266.824C312.423 266.824 312.647 266.92 312.828 267.112C313.02 267.304 313.116 267.539 313.116 267.816C313.116 268.093 313.02 268.328 312.828 268.52C312.647 268.712 312.423 268.808 312.156 268.808ZM312.86 270.232V279H311.404V270.232H312.86ZM319.613 270.072C320.68 270.072 321.544 270.397 322.205 271.048C322.867 271.688 323.197 272.616 323.197 273.832V279H321.757V274.04C321.757 273.165 321.539 272.499 321.101 272.04C320.664 271.571 320.067 271.336 319.309 271.336C318.541 271.336 317.928 271.576 317.469 272.056C317.021 272.536 316.797 273.235 316.797 274.152V279H315.341V270.232H316.797V271.48C317.085 271.032 317.475 270.685 317.965 270.44C318.467 270.195 319.016 270.072 319.613 270.072ZM329.192 270.088C329.949 270.088 330.61 270.253 331.176 270.584C331.752 270.915 332.178 271.331 332.456 271.832V270.232H333.928V279.192C333.928 279.992 333.757 280.701 333.416 281.32C333.074 281.949 332.584 282.44 331.944 282.792C331.314 283.144 330.578 283.32 329.736 283.32C328.584 283.32 327.624 283.048 326.856 282.504C326.088 281.96 325.634 281.219 325.496 280.28H326.936C327.096 280.813 327.426 281.24 327.928 281.56C328.429 281.891 329.032 282.056 329.736 282.056C330.536 282.056 331.186 281.805 331.688 281.304C332.2 280.803 332.456 280.099 332.456 279.192V277.352C332.168 277.864 331.741 278.291 331.176 278.632C330.61 278.973 329.949 279.144 329.192 279.144C328.413 279.144 327.704 278.952 327.064 278.568C326.434 278.184 325.938 277.645 325.576 276.952C325.213 276.259 325.032 275.469 325.032 274.584C325.032 273.688 325.213 272.904 325.576 272.232C325.938 271.549 326.434 271.021 327.064 270.648C327.704 270.275 328.413 270.088 329.192 270.088ZM332.456 274.6C332.456 273.939 332.322 273.363 332.056 272.872C331.789 272.381 331.426 272.008 330.968 271.752C330.52 271.485 330.024 271.352 329.48 271.352C328.936 271.352 328.44 271.48 327.992 271.736C327.544 271.992 327.186 272.365 326.92 272.856C326.653 273.347 326.52 273.923 326.52 274.584C326.52 275.256 326.653 275.843 326.92 276.344C327.186 276.835 327.544 277.213 327.992 277.48C328.44 277.736 328.936 277.864 329.48 277.864C330.024 277.864 330.52 277.736 330.968 277.48C331.426 277.213 331.789 276.835 332.056 276.344C332.322 275.843 332.456 275.261 332.456 274.6Z" fill="#666666"/>
<defs>
<filter id="filter0_d_201_196" x="0" y="0" width="514" height="422" filterUnits="userSpaceOnUse" color-interpolation-filters="sRGB">
<feFlood flood-opacity="0" result="BackgroundImageFix"/>
<feColorMatrix in="SourceAlpha" type="matrix" values="0 0 0 0 0 0 0 0 0 0 0 0 0 0 0 0 0 0 127 0" result="hardAlpha"/>
<feOffset dx="14" dy="24"/>
<feGaussianBlur stdDeviation="36"/>
<feComposite in2="hardAlpha" operator="out"/>
<feColorMatrix type="matrix" values="0 0 0 0 0.4 0 0 0 0 0.4 0 0 0 0 0.4 0 0 0 0.1 0"/>
<feBlend mode="normal" in2="BackgroundImageFix" result="effect1_dropShadow_201_196"/>
<feBlend mode="normal" in="SourceGraphic" in2="effect1_dropShadow_201_196" result="shape"/>
</filter>
</defs>
</svg>
