<svg width="370" height="278" viewBox="0 0 370 278" fill="none" xmlns="http://www.w3.org/2000/svg">
<rect width="370" height="278" rx="8" fill="white"/>
<rect x="1" y="1" width="368" height="276" rx="7" stroke="#666666" stroke-opacity="0.08" stroke-width="2"/>
<path d="M4.5 274C13.5 253 135 284.5 208 183C281 81.5 274.5 12 366 5" stroke="#FFFAF0" stroke-width="4"/>
<path d="M45.016 146.96V151.16H50.656V153.824H45.016V158.264H51.376V161H41.656V144.224H51.376V146.96H45.016ZM61.7734 161L59.0374 156.872L56.6134 161H53.0134L57.3574 154.328L52.9654 147.704H56.7574L59.4694 151.808L61.9174 147.704H65.5174L61.1494 154.328L65.5654 161H61.7734ZM66.5264 154.352C66.5264 152.976 66.8064 151.776 67.3664 150.752C67.9264 149.712 68.7024 148.912 69.6944 148.352C70.6864 147.776 71.8224 147.488 73.1024 147.488C74.7504 147.488 76.1104 147.904 77.1824 148.736C78.2704 149.552 78.9984 150.704 79.3664 152.192H75.7424C75.5504 151.616 75.2224 151.168 74.7584 150.848C74.3104 150.512 73.7504 150.344 73.0784 150.344C72.1184 150.344 71.3584 150.696 70.7984 151.4C70.2384 152.088 69.9584 153.072 69.9584 154.352C69.9584 155.616 70.2384 156.6 70.7984 157.304C71.3584 157.992 72.1184 158.336 73.0784 158.336C74.4384 158.336 75.3264 157.728 75.7424 156.512H79.3664C78.9984 157.952 78.2704 159.096 77.1824 159.944C76.0944 160.792 74.7344 161.216 73.1024 161.216C71.8224 161.216 70.6864 160.936 69.6944 160.376C68.7024 159.8 67.9264 159 67.3664 157.976C66.8064 156.936 66.5264 155.728 66.5264 154.352ZM83.5319 146.12C82.9399 146.12 82.4439 145.936 82.0439 145.568C81.6599 145.184 81.4679 144.712 81.4679 144.152C81.4679 143.592 81.6599 143.128 82.0439 142.76C82.4439 142.376 82.9399 142.184 83.5319 142.184C84.1239 142.184 84.6119 142.376 84.9959 142.76C85.3959 143.128 85.5959 143.592 85.5959 144.152C85.5959 144.712 85.3959 145.184 84.9959 145.568C84.6119 145.936 84.1239 146.12 83.5319 146.12ZM85.1879 147.704V161H81.8279V147.704H85.1879ZM92.4196 150.464V156.896C92.4196 157.344 92.5236 157.672 92.7316 157.88C92.9556 158.072 93.3236 158.168 93.8356 158.168H95.3956V161H93.2836C90.4516 161 89.0356 159.624 89.0356 156.872V150.464H87.4516V147.704H89.0356V144.416H92.4196V147.704H95.3956V150.464H92.4196ZM99.5163 146.12C98.9243 146.12 98.4283 145.936 98.0283 145.568C97.6443 145.184 97.4523 144.712 97.4523 144.152C97.4523 143.592 97.6443 143.128 98.0283 142.76C98.4283 142.376 98.9243 142.184 99.5163 142.184C100.108 142.184 100.596 142.376 100.98 142.76C101.38 143.128 101.58 143.592 101.58 144.152C101.58 144.712 101.38 145.184 100.98 145.568C100.596 145.936 100.108 146.12 99.5163 146.12ZM101.172 147.704V161H97.8123V147.704H101.172ZM111.86 147.512C113.444 147.512 114.724 148.016 115.7 149.024C116.676 150.016 117.164 151.408 117.164 153.2V161H113.804V153.656C113.804 152.6 113.54 151.792 113.012 151.232C112.484 150.656 111.764 150.368 110.852 150.368C109.924 150.368 109.188 150.656 108.644 151.232C108.116 151.792 107.852 152.6 107.852 153.656V161H104.492V147.704H107.852V149.36C108.3 148.784 108.868 148.336 109.556 148.016C110.26 147.68 111.028 147.512 111.86 147.512ZM125.567 147.488C126.559 147.488 127.431 147.688 128.183 148.088C128.935 148.472 129.527 148.976 129.959 149.6V147.704H133.343V161.096C133.343 162.328 133.095 163.424 132.599 164.384C132.103 165.36 131.359 166.128 130.367 166.688C129.375 167.264 128.175 167.552 126.767 167.552C124.879 167.552 123.327 167.112 122.111 166.232C120.911 165.352 120.231 164.152 120.071 162.632H123.407C123.583 163.24 123.959 163.72 124.535 164.072C125.127 164.44 125.839 164.624 126.671 164.624C127.647 164.624 128.439 164.328 129.047 163.736C129.655 163.16 129.959 162.28 129.959 161.096V159.032C129.527 159.656 128.927 160.176 128.159 160.592C127.407 161.008 126.543 161.216 125.567 161.216C124.447 161.216 123.423 160.928 122.495 160.352C121.567 159.776 120.831 158.968 120.287 157.928C119.759 156.872 119.495 155.664 119.495 154.304C119.495 152.96 119.759 151.768 120.287 150.728C120.831 149.688 121.559 148.888 122.471 148.328C123.399 147.768 124.431 147.488 125.567 147.488ZM129.959 154.352C129.959 153.536 129.799 152.84 129.479 152.264C129.159 151.672 128.727 151.224 128.183 150.92C127.639 150.6 127.055 150.44 126.431 150.44C125.807 150.44 125.231 150.592 124.703 150.896C124.175 151.2 123.743 151.648 123.407 152.24C123.087 152.816 122.927 153.504 122.927 154.304C122.927 155.104 123.087 155.808 123.407 156.416C123.743 157.008 124.175 157.464 124.703 157.784C125.247 158.104 125.823 158.264 126.431 158.264C127.055 158.264 127.639 158.112 128.183 157.808C128.727 157.488 129.159 157.04 129.479 156.464C129.799 155.872 129.959 155.168 129.959 154.352ZM153.744 144.248V146.96H149.28V161H145.92V146.96H141.456V144.248H153.744ZM159.555 149.768C159.987 149.064 160.547 148.512 161.235 148.112C161.939 147.712 162.739 147.512 163.635 147.512V151.04H162.747C161.691 151.04 160.891 151.288 160.347 151.784C159.819 152.28 159.555 153.144 159.555 154.376V161H156.195V147.704H159.555V149.768ZM165.034 154.304C165.034 152.96 165.298 151.768 165.826 150.728C166.37 149.688 167.098 148.888 168.01 148.328C168.938 147.768 169.97 147.488 171.106 147.488C172.098 147.488 172.962 147.688 173.698 148.088C174.45 148.488 175.05 148.992 175.498 149.6V147.704H178.882V161H175.498V159.056C175.066 159.68 174.466 160.2 173.698 160.616C172.946 161.016 172.074 161.216 171.082 161.216C169.962 161.216 168.938 160.928 168.01 160.352C167.098 159.776 166.37 158.968 165.826 157.928C165.298 156.872 165.034 155.664 165.034 154.304ZM175.498 154.352C175.498 153.536 175.338 152.84 175.018 152.264C174.698 151.672 174.266 151.224 173.722 150.92C173.178 150.6 172.594 150.44 171.97 150.44C171.346 150.44 170.77 150.592 170.242 150.896C169.714 151.2 169.282 151.648 168.946 152.24C168.626 152.816 168.466 153.504 168.466 154.304C168.466 155.104 168.626 155.808 168.946 156.416C169.282 157.008 169.714 157.464 170.242 157.784C170.786 158.104 171.362 158.264 171.97 158.264C172.594 158.264 173.178 158.112 173.722 157.808C174.266 157.488 174.698 157.04 175.018 156.464C175.338 155.872 175.498 155.168 175.498 154.352ZM187.708 157.904L191.068 147.704H194.644L189.724 161H185.644L180.748 147.704H184.348L187.708 157.904ZM208.891 154.064C208.891 154.544 208.859 154.976 208.795 155.36H199.075C199.155 156.32 199.491 157.072 200.083 157.616C200.675 158.16 201.403 158.432 202.267 158.432C203.515 158.432 204.403 157.896 204.931 156.824H208.555C208.171 158.104 207.435 159.16 206.347 159.992C205.259 160.808 203.923 161.216 202.339 161.216C201.059 161.216 199.907 160.936 198.883 160.376C197.875 159.8 197.083 158.992 196.507 157.952C195.947 156.912 195.667 155.712 195.667 154.352C195.667 152.976 195.947 151.768 196.507 150.728C197.067 149.688 197.851 148.888 198.859 148.328C199.867 147.768 201.027 147.488 202.339 147.488C203.603 147.488 204.731 147.76 205.723 148.304C206.731 148.848 207.507 149.624 208.051 150.632C208.611 151.624 208.891 152.768 208.891 154.064ZM205.411 153.104C205.395 152.24 205.083 151.552 204.475 151.04C203.867 150.512 203.123 150.248 202.243 150.248C201.411 150.248 200.707 150.504 200.131 151.016C199.571 151.512 199.227 152.208 199.099 153.104H205.411ZM214.704 143.24V161H211.344V143.24H214.704Z" fill="#222222"/>
<path d="M44.768 205.112C44.032 205.112 43.3707 204.984 42.784 204.728C42.208 204.461 41.7547 204.099 41.424 203.64C41.0933 203.171 40.9227 202.632 40.912 202.024H42.464C42.5173 202.547 42.7307 202.989 43.104 203.352C43.488 203.704 44.0427 203.88 44.768 203.88C45.4613 203.88 46.0053 203.709 46.4 203.368C46.8053 203.016 47.008 202.568 47.008 202.024C47.008 201.597 46.8907 201.251 46.656 200.984C46.4213 200.717 46.128 200.515 45.776 200.376C45.424 200.237 44.9493 200.088 44.352 199.928C43.616 199.736 43.024 199.544 42.576 199.352C42.1387 199.16 41.76 198.861 41.44 198.456C41.1307 198.04 40.976 197.485 40.976 196.792C40.976 196.184 41.1307 195.645 41.44 195.176C41.7493 194.707 42.1813 194.344 42.736 194.088C43.3013 193.832 43.9467 193.704 44.672 193.704C45.7173 193.704 46.5707 193.965 47.232 194.488C47.904 195.011 48.2827 195.704 48.368 196.568H46.768C46.7147 196.141 46.4907 195.768 46.096 195.448C45.7013 195.117 45.1787 194.952 44.528 194.952C43.92 194.952 43.424 195.112 43.04 195.432C42.656 195.741 42.464 196.179 42.464 196.744C42.464 197.149 42.576 197.48 42.8 197.736C43.0347 197.992 43.3173 198.189 43.648 198.328C43.9893 198.456 44.464 198.605 45.072 198.776C45.808 198.979 46.4 199.181 46.848 199.384C47.296 199.576 47.68 199.88 48 200.296C48.32 200.701 48.48 201.256 48.48 201.96C48.48 202.504 48.336 203.016 48.048 203.496C47.76 203.976 47.3333 204.365 46.768 204.664C46.2027 204.963 45.536 205.112 44.768 205.112ZM52.3986 197.432V202.6C52.3986 203.027 52.4893 203.331 52.6706 203.512C52.852 203.683 53.1666 203.768 53.6146 203.768H54.6866V205H53.3746C52.564 205 51.956 204.813 51.5506 204.44C51.1453 204.067 50.9426 203.453 50.9426 202.6V197.432H49.8066V196.232H50.9426V194.024H52.3986V196.232H54.6866V197.432H52.3986ZM55.9068 200.584C55.9068 199.688 56.0881 198.904 56.4508 198.232C56.8134 197.549 57.3094 197.021 57.9388 196.648C58.5788 196.275 59.2881 196.088 60.0668 196.088C60.8348 196.088 61.5014 196.253 62.0668 196.584C62.6321 196.915 63.0534 197.331 63.3308 197.832V196.232H64.8028V205H63.3308V203.368C63.0428 203.88 62.6108 204.307 62.0348 204.648C61.4694 204.979 60.8081 205.144 60.0508 205.144C59.2721 205.144 58.5681 204.952 57.9388 204.568C57.3094 204.184 56.8134 203.645 56.4508 202.952C56.0881 202.259 55.9068 201.469 55.9068 200.584ZM63.3308 200.6C63.3308 199.939 63.1974 199.363 62.9308 198.872C62.6641 198.381 62.3014 198.008 61.8428 197.752C61.3948 197.485 60.8988 197.352 60.3548 197.352C59.8108 197.352 59.3148 197.48 58.8668 197.736C58.4188 197.992 58.0614 198.365 57.7948 198.856C57.5281 199.347 57.3948 199.923 57.3948 200.584C57.3948 201.256 57.5281 201.843 57.7948 202.344C58.0614 202.835 58.4188 203.213 58.8668 203.48C59.3148 203.736 59.8108 203.864 60.3548 203.864C60.8988 203.864 61.3948 203.736 61.8428 203.48C62.3014 203.213 62.6641 202.835 62.9308 202.344C63.1974 201.843 63.3308 201.261 63.3308 200.6ZM68.7193 197.656C68.9753 197.155 69.3379 196.765 69.8073 196.488C70.2873 196.211 70.8686 196.072 71.5513 196.072V197.576H71.1673C69.5353 197.576 68.7193 198.461 68.7193 200.232V205H67.2633V196.232H68.7193V197.656ZM75.008 197.432V202.6C75.008 203.027 75.0987 203.331 75.28 203.512C75.4613 203.683 75.776 203.768 76.224 203.768H77.296V205H75.984C75.1733 205 74.5653 204.813 74.16 204.44C73.7547 204.067 73.552 203.453 73.552 202.6V197.432H72.416V196.232H73.552V194.024H75.008V196.232H77.296V197.432H75.008ZM82.7818 200.584C82.7818 199.688 82.9631 198.904 83.3258 198.232C83.6884 197.549 84.1844 197.021 84.8138 196.648C85.4538 196.275 86.1631 196.088 86.9418 196.088C87.7098 196.088 88.3764 196.253 88.9418 196.584C89.5071 196.915 89.9284 197.331 90.2058 197.832V196.232H91.6778V205H90.2058V203.368C89.9178 203.88 89.4858 204.307 88.9098 204.648C88.3444 204.979 87.6831 205.144 86.9258 205.144C86.1471 205.144 85.4431 204.952 84.8138 204.568C84.1844 204.184 83.6884 203.645 83.3258 202.952C82.9631 202.259 82.7818 201.469 82.7818 200.584ZM90.2058 200.6C90.2058 199.939 90.0724 199.363 89.8058 198.872C89.5391 198.381 89.1764 198.008 88.7178 197.752C88.2698 197.485 87.7738 197.352 87.2298 197.352C86.6858 197.352 86.1898 197.48 85.7418 197.736C85.2938 197.992 84.9364 198.365 84.6698 198.856C84.4031 199.347 84.2698 199.923 84.2698 200.584C84.2698 201.256 84.4031 201.843 84.6698 202.344C84.9364 202.835 85.2938 203.213 85.7418 203.48C86.1898 203.736 86.6858 203.864 87.2298 203.864C87.7738 203.864 88.2698 203.736 88.7178 203.48C89.1764 203.213 89.5391 202.835 89.8058 202.344C90.0724 201.843 90.2058 201.261 90.2058 200.6ZM98.4103 196.072C99.4769 196.072 100.341 196.397 101.002 197.048C101.664 197.688 101.994 198.616 101.994 199.832V205H100.554V200.04C100.554 199.165 100.336 198.499 99.8983 198.04C99.4609 197.571 98.8636 197.336 98.1063 197.336C97.3383 197.336 96.7249 197.576 96.2663 198.056C95.8183 198.536 95.5943 199.235 95.5943 200.152V205H94.1383V196.232H95.5943V197.48C95.8823 197.032 96.2716 196.685 96.7623 196.44C97.2636 196.195 97.8129 196.072 98.4103 196.072ZM103.829 200.584C103.829 199.688 104.01 198.904 104.373 198.232C104.735 197.549 105.231 197.021 105.861 196.648C106.501 196.275 107.215 196.088 108.005 196.088C108.687 196.088 109.322 196.248 109.909 196.568C110.495 196.877 110.943 197.288 111.253 197.8V193.16H112.725V205H111.253V203.352C110.965 203.875 110.538 204.307 109.973 204.648C109.407 204.979 108.746 205.144 107.989 205.144C107.21 205.144 106.501 204.952 105.861 204.568C105.231 204.184 104.735 203.645 104.373 202.952C104.01 202.259 103.829 201.469 103.829 200.584ZM111.253 200.6C111.253 199.939 111.119 199.363 110.853 198.872C110.586 198.381 110.223 198.008 109.765 197.752C109.317 197.485 108.821 197.352 108.277 197.352C107.733 197.352 107.237 197.48 106.789 197.736C106.341 197.992 105.983 198.365 105.717 198.856C105.45 199.347 105.317 199.923 105.317 200.584C105.317 201.256 105.45 201.843 105.717 202.344C105.983 202.835 106.341 203.213 106.789 203.48C107.237 203.736 107.733 203.864 108.277 203.864C108.821 203.864 109.317 203.736 109.765 203.48C110.223 203.213 110.586 202.835 110.853 202.344C111.119 201.843 111.253 201.261 111.253 200.6ZM127.451 200.28C127.451 200.557 127.435 200.851 127.403 201.16H120.395C120.448 202.024 120.741 202.701 121.275 203.192C121.819 203.672 122.475 203.912 123.243 203.912C123.872 203.912 124.395 203.768 124.811 203.48C125.237 203.181 125.536 202.787 125.707 202.296H127.275C127.04 203.139 126.571 203.827 125.867 204.36C125.163 204.883 124.288 205.144 123.243 205.144C122.411 205.144 121.664 204.957 121.003 204.584C120.352 204.211 119.84 203.683 119.467 203C119.093 202.307 118.907 201.507 118.907 200.6C118.907 199.693 119.088 198.899 119.451 198.216C119.813 197.533 120.32 197.011 120.971 196.648C121.632 196.275 122.389 196.088 123.243 196.088C124.075 196.088 124.811 196.269 125.451 196.632C126.091 196.995 126.581 197.496 126.923 198.136C127.275 198.765 127.451 199.48 127.451 200.28ZM125.947 199.976C125.947 199.421 125.824 198.947 125.579 198.552C125.333 198.147 124.997 197.843 124.571 197.64C124.155 197.427 123.691 197.32 123.179 197.32C122.443 197.32 121.813 197.555 121.291 198.024C120.779 198.493 120.485 199.144 120.411 199.976H125.947ZM133.949 205L131.869 201.736L129.869 205H128.349L131.181 200.648L128.349 196.232H129.997L132.077 199.48L134.061 196.232H135.581L132.765 200.568L135.597 205H133.949ZM138.485 197.848C138.773 197.347 139.2 196.931 139.765 196.6C140.341 196.259 141.008 196.088 141.765 196.088C142.544 196.088 143.248 196.275 143.877 196.648C144.517 197.021 145.018 197.549 145.381 198.232C145.744 198.904 145.925 199.688 145.925 200.584C145.925 201.469 145.744 202.259 145.381 202.952C145.018 203.645 144.517 204.184 143.877 204.568C143.248 204.952 142.544 205.144 141.765 205.144C141.018 205.144 140.357 204.979 139.781 204.648C139.216 204.307 138.784 203.885 138.485 203.384V209.16H137.029V196.232H138.485V197.848ZM144.437 200.584C144.437 199.923 144.304 199.347 144.037 198.856C143.77 198.365 143.408 197.992 142.949 197.736C142.501 197.48 142.005 197.352 141.461 197.352C140.928 197.352 140.432 197.485 139.973 197.752C139.525 198.008 139.162 198.387 138.885 198.888C138.618 199.379 138.485 199.949 138.485 200.6C138.485 201.261 138.618 201.843 138.885 202.344C139.162 202.835 139.525 203.213 139.973 203.48C140.432 203.736 140.928 203.864 141.461 203.864C142.005 203.864 142.501 203.736 142.949 203.48C143.408 203.213 143.77 202.835 144.037 202.344C144.304 201.843 144.437 201.256 144.437 200.584ZM149.297 193.16V205H147.841V193.16H149.297ZM155.603 205.144C154.782 205.144 154.035 204.957 153.363 204.584C152.702 204.211 152.179 203.683 151.795 203C151.422 202.307 151.235 201.507 151.235 200.6C151.235 199.704 151.427 198.915 151.811 198.232C152.206 197.539 152.739 197.011 153.411 196.648C154.083 196.275 154.835 196.088 155.667 196.088C156.499 196.088 157.251 196.275 157.923 196.648C158.595 197.011 159.123 197.533 159.507 198.216C159.902 198.899 160.099 199.693 160.099 200.6C160.099 201.507 159.896 202.307 159.491 203C159.096 203.683 158.558 204.211 157.875 204.584C157.192 204.957 156.435 205.144 155.603 205.144ZM155.603 203.864C156.126 203.864 156.616 203.741 157.075 203.496C157.534 203.251 157.902 202.883 158.179 202.392C158.467 201.901 158.611 201.304 158.611 200.6C158.611 199.896 158.472 199.299 158.195 198.808C157.918 198.317 157.555 197.955 157.107 197.72C156.659 197.475 156.174 197.352 155.651 197.352C155.118 197.352 154.627 197.475 154.179 197.72C153.742 197.955 153.39 198.317 153.123 198.808C152.856 199.299 152.723 199.896 152.723 200.6C152.723 201.315 152.851 201.917 153.107 202.408C153.374 202.899 153.726 203.267 154.163 203.512C154.6 203.747 155.08 203.864 155.603 203.864ZM163.469 197.656C163.725 197.155 164.088 196.765 164.557 196.488C165.037 196.211 165.619 196.072 166.301 196.072V197.576H165.917C164.285 197.576 163.469 198.461 163.469 200.232V205H162.013V196.232H163.469V197.656ZM175.982 200.28C175.982 200.557 175.966 200.851 175.934 201.16H168.926C168.979 202.024 169.273 202.701 169.806 203.192C170.35 203.672 171.006 203.912 171.774 203.912C172.403 203.912 172.926 203.768 173.342 203.48C173.769 203.181 174.067 202.787 174.238 202.296H175.806C175.571 203.139 175.102 203.827 174.398 204.36C173.694 204.883 172.819 205.144 171.774 205.144C170.942 205.144 170.195 204.957 169.534 204.584C168.883 204.211 168.371 203.683 167.998 203C167.625 202.307 167.438 201.507 167.438 200.6C167.438 199.693 167.619 198.899 167.982 198.216C168.345 197.533 168.851 197.011 169.502 196.648C170.163 196.275 170.921 196.088 171.774 196.088C172.606 196.088 173.342 196.269 173.982 196.632C174.622 196.995 175.113 197.496 175.454 198.136C175.806 198.765 175.982 199.48 175.982 200.28ZM174.478 199.976C174.478 199.421 174.355 198.947 174.11 198.552C173.865 198.147 173.529 197.843 173.102 197.64C172.686 197.427 172.222 197.32 171.71 197.32C170.974 197.32 170.345 197.555 169.822 198.024C169.31 198.493 169.017 199.144 168.942 199.976H174.478ZM181.626 200.584C181.626 199.688 181.807 198.904 182.17 198.232C182.532 197.549 183.028 197.021 183.658 196.648C184.298 196.275 185.007 196.088 185.786 196.088C186.554 196.088 187.22 196.253 187.786 196.584C188.351 196.915 188.772 197.331 189.05 197.832V196.232H190.522V205H189.05V203.368C188.762 203.88 188.33 204.307 187.754 204.648C187.188 204.979 186.527 205.144 185.77 205.144C184.991 205.144 184.287 204.952 183.658 204.568C183.028 204.184 182.532 203.645 182.17 202.952C181.807 202.259 181.626 201.469 181.626 200.584ZM189.05 200.6C189.05 199.939 188.916 199.363 188.65 198.872C188.383 198.381 188.02 198.008 187.562 197.752C187.114 197.485 186.618 197.352 186.074 197.352C185.53 197.352 185.034 197.48 184.586 197.736C184.138 197.992 183.78 198.365 183.514 198.856C183.247 199.347 183.114 199.923 183.114 200.584C183.114 201.256 183.247 201.843 183.514 202.344C183.78 202.835 184.138 203.213 184.586 203.48C185.034 203.736 185.53 203.864 186.074 203.864C186.618 203.864 187.114 203.736 187.562 203.48C188.02 203.213 188.383 202.835 188.65 202.344C188.916 201.843 189.05 201.261 189.05 200.6ZM208.928 196.232L206.192 205H204.688L202.576 198.04L200.464 205H198.96L196.208 196.232H197.696L199.712 203.592L201.888 196.232H203.376L205.504 203.608L207.488 196.232H208.928ZM211.125 194.808C210.847 194.808 210.613 194.712 210.421 194.52C210.229 194.328 210.133 194.093 210.133 193.816C210.133 193.539 210.229 193.304 210.421 193.112C210.613 192.92 210.847 192.824 211.125 192.824C211.391 192.824 211.615 192.92 211.797 193.112C211.989 193.304 212.085 193.539 212.085 193.816C212.085 194.093 211.989 194.328 211.797 194.52C211.615 194.712 211.391 194.808 211.125 194.808ZM211.829 196.232V205H210.373V196.232H211.829ZM213.766 200.584C213.766 199.688 213.947 198.904 214.31 198.232C214.673 197.549 215.169 197.021 215.798 196.648C216.438 196.275 217.153 196.088 217.942 196.088C218.625 196.088 219.259 196.248 219.846 196.568C220.433 196.877 220.881 197.288 221.19 197.8V193.16H222.662V205H221.19V203.352C220.902 203.875 220.475 204.307 219.91 204.648C219.345 204.979 218.683 205.144 217.926 205.144C217.147 205.144 216.438 204.952 215.798 204.568C215.169 204.184 214.673 203.645 214.31 202.952C213.947 202.259 213.766 201.469 213.766 200.584ZM221.19 200.6C221.19 199.939 221.057 199.363 220.79 198.872C220.523 198.381 220.161 198.008 219.702 197.752C219.254 197.485 218.758 197.352 218.214 197.352C217.67 197.352 217.174 197.48 216.726 197.736C216.278 197.992 215.921 198.365 215.654 198.856C215.387 199.347 215.254 199.923 215.254 200.584C215.254 201.256 215.387 201.843 215.654 202.344C215.921 202.835 216.278 203.213 216.726 203.48C217.174 203.736 217.67 203.864 218.214 203.864C218.758 203.864 219.254 203.736 219.702 203.48C220.161 203.213 220.523 202.835 220.79 202.344C221.057 201.843 221.19 201.261 221.19 200.6ZM233.123 200.28C233.123 200.557 233.107 200.851 233.075 201.16H226.067C226.12 202.024 226.413 202.701 226.947 203.192C227.491 203.672 228.147 203.912 228.915 203.912C229.544 203.912 230.067 203.768 230.483 203.48C230.909 203.181 231.208 202.787 231.379 202.296H232.947C232.712 203.139 232.243 203.827 231.539 204.36C230.835 204.883 229.96 205.144 228.915 205.144C228.083 205.144 227.336 204.957 226.675 204.584C226.024 204.211 225.512 203.683 225.139 203C224.765 202.307 224.579 201.507 224.579 200.6C224.579 199.693 224.76 198.899 225.123 198.216C225.485 197.533 225.992 197.011 226.643 196.648C227.304 196.275 228.061 196.088 228.915 196.088C229.747 196.088 230.483 196.269 231.123 196.632C231.763 196.995 232.253 197.496 232.595 198.136C232.947 198.765 233.123 199.48 233.123 200.28ZM231.619 199.976C231.619 199.421 231.496 198.947 231.251 198.552C231.005 198.147 230.669 197.843 230.243 197.64C229.827 197.427 229.363 197.32 228.851 197.32C228.115 197.32 227.485 197.555 226.963 198.024C226.451 198.493 226.157 199.144 226.083 199.976H231.619ZM240.766 197.656C241.022 197.155 241.385 196.765 241.854 196.488C242.334 196.211 242.915 196.072 243.598 196.072V197.576H243.214C241.582 197.576 240.766 198.461 240.766 200.232V205H239.31V196.232H240.766V197.656ZM244.735 200.584C244.735 199.688 244.916 198.904 245.279 198.232C245.642 197.549 246.138 197.021 246.767 196.648C247.407 196.275 248.116 196.088 248.895 196.088C249.663 196.088 250.33 196.253 250.895 196.584C251.46 196.915 251.882 197.331 252.159 197.832V196.232H253.631V205H252.159V203.368C251.871 203.88 251.439 204.307 250.863 204.648C250.298 204.979 249.636 205.144 248.879 205.144C248.1 205.144 247.396 204.952 246.767 204.568C246.138 204.184 245.642 203.645 245.279 202.952C244.916 202.259 244.735 201.469 244.735 200.584ZM252.159 200.6C252.159 199.939 252.026 199.363 251.759 198.872C251.492 198.381 251.13 198.008 250.671 197.752C250.223 197.485 249.727 197.352 249.183 197.352C248.639 197.352 248.143 197.48 247.695 197.736C247.247 197.992 246.89 198.365 246.623 198.856C246.356 199.347 246.223 199.923 246.223 200.584C246.223 201.256 246.356 201.843 246.623 202.344C246.89 202.835 247.247 203.213 247.695 203.48C248.143 203.736 248.639 203.864 249.183 203.864C249.727 203.864 250.223 203.736 250.671 203.48C251.13 203.213 251.492 202.835 251.759 202.344C252.026 201.843 252.159 201.261 252.159 200.6ZM260.363 196.072C261.43 196.072 262.294 196.397 262.955 197.048C263.617 197.688 263.947 198.616 263.947 199.832V205H262.507V200.04C262.507 199.165 262.289 198.499 261.851 198.04C261.414 197.571 260.817 197.336 260.059 197.336C259.291 197.336 258.678 197.576 258.219 198.056C257.771 198.536 257.547 199.235 257.547 200.152V205H256.091V196.232H257.547V197.48C257.835 197.032 258.225 196.685 258.715 196.44C259.217 196.195 259.766 196.072 260.363 196.072ZM269.942 196.088C270.699 196.088 271.36 196.253 271.926 196.584C272.502 196.915 272.928 197.331 273.206 197.832V196.232H274.678V205.192C274.678 205.992 274.507 206.701 274.166 207.32C273.824 207.949 273.334 208.44 272.694 208.792C272.064 209.144 271.328 209.32 270.486 209.32C269.334 209.32 268.374 209.048 267.606 208.504C266.838 207.96 266.384 207.219 266.246 206.28H267.686C267.846 206.813 268.176 207.24 268.678 207.56C269.179 207.891 269.782 208.056 270.486 208.056C271.286 208.056 271.936 207.805 272.438 207.304C272.95 206.803 273.206 206.099 273.206 205.192V203.352C272.918 203.864 272.491 204.291 271.926 204.632C271.36 204.973 270.699 205.144 269.942 205.144C269.163 205.144 268.454 204.952 267.814 204.568C267.184 204.184 266.688 203.645 266.326 202.952C265.963 202.259 265.782 201.469 265.782 200.584C265.782 199.688 265.963 198.904 266.326 198.232C266.688 197.549 267.184 197.021 267.814 196.648C268.454 196.275 269.163 196.088 269.942 196.088ZM273.206 200.6C273.206 199.939 273.072 199.363 272.806 198.872C272.539 198.381 272.176 198.008 271.718 197.752C271.27 197.485 270.774 197.352 270.23 197.352C269.686 197.352 269.19 197.48 268.742 197.736C268.294 197.992 267.936 198.365 267.67 198.856C267.403 199.347 267.27 199.923 267.27 200.584C267.27 201.256 267.403 201.843 267.67 202.344C267.936 202.835 268.294 203.213 268.742 203.48C269.19 203.736 269.686 203.864 270.23 203.864C270.774 203.864 271.27 203.736 271.718 203.48C272.176 203.213 272.539 202.835 272.806 202.344C273.072 201.843 273.206 201.261 273.206 200.6ZM285.138 200.28C285.138 200.557 285.122 200.851 285.09 201.16H278.082C278.136 202.024 278.429 202.701 278.962 203.192C279.506 203.672 280.162 203.912 280.93 203.912C281.56 203.912 282.082 203.768 282.498 203.48C282.925 203.181 283.224 202.787 283.394 202.296H284.962C284.728 203.139 284.258 203.827 283.554 204.36C282.85 204.883 281.976 205.144 280.93 205.144C280.098 205.144 279.352 204.957 278.69 204.584C278.04 204.211 277.528 203.683 277.154 203C276.781 202.307 276.594 201.507 276.594 200.6C276.594 199.693 276.776 198.899 277.138 198.216C277.501 197.533 278.008 197.011 278.658 196.648C279.32 196.275 280.077 196.088 280.93 196.088C281.762 196.088 282.498 196.269 283.138 196.632C283.778 196.995 284.269 197.496 284.61 198.136C284.962 198.765 285.138 199.48 285.138 200.28ZM283.634 199.976C283.634 199.421 283.512 198.947 283.266 198.552C283.021 198.147 282.685 197.843 282.258 197.64C281.842 197.427 281.378 197.32 280.866 197.32C280.13 197.32 279.501 197.555 278.978 198.024C278.466 198.493 278.173 199.144 278.098 199.976H283.634ZM295.15 205.144C294.328 205.144 293.582 204.957 292.91 204.584C292.248 204.211 291.726 203.683 291.342 203C290.968 202.307 290.782 201.507 290.782 200.6C290.782 199.704 290.974 198.915 291.358 198.232C291.752 197.539 292.286 197.011 292.958 196.648C293.63 196.275 294.382 196.088 295.214 196.088C296.046 196.088 296.798 196.275 297.47 196.648C298.142 197.011 298.67 197.533 299.054 198.216C299.448 198.899 299.646 199.693 299.646 200.6C299.646 201.507 299.443 202.307 299.038 203C298.643 203.683 298.104 204.211 297.422 204.584C296.739 204.957 295.982 205.144 295.15 205.144ZM295.15 203.864C295.672 203.864 296.163 203.741 296.622 203.496C297.08 203.251 297.448 202.883 297.726 202.392C298.014 201.901 298.158 201.304 298.158 200.6C298.158 199.896 298.019 199.299 297.742 198.808C297.464 198.317 297.102 197.955 296.654 197.72C296.206 197.475 295.72 197.352 295.198 197.352C294.664 197.352 294.174 197.475 293.726 197.72C293.288 197.955 292.936 198.317 292.67 198.808C292.403 199.299 292.27 199.896 292.27 200.6C292.27 201.315 292.398 201.917 292.654 202.408C292.92 202.899 293.272 203.267 293.71 203.512C294.147 203.747 294.627 203.864 295.15 203.864ZM305.128 197.432H303.288V205H301.832V197.432H300.696V196.232H301.832V195.608C301.832 194.627 302.083 193.912 302.584 193.464C303.096 193.005 303.912 192.776 305.032 192.776V193.992C304.392 193.992 303.939 194.12 303.672 194.376C303.416 194.621 303.288 195.032 303.288 195.608V196.232H305.128V197.432ZM49.232 226.28C49.232 226.557 49.216 226.851 49.184 227.16H42.176C42.2293 228.024 42.5227 228.701 43.056 229.192C43.6 229.672 44.256 229.912 45.024 229.912C45.6533 229.912 46.176 229.768 46.592 229.48C47.0187 229.181 47.3173 228.787 47.488 228.296H49.056C48.8213 229.139 48.352 229.827 47.648 230.36C46.944 230.883 46.0693 231.144 45.024 231.144C44.192 231.144 43.4453 230.957 42.784 230.584C42.1333 230.211 41.6213 229.683 41.248 229C40.8747 228.307 40.688 227.507 40.688 226.6C40.688 225.693 40.8693 224.899 41.232 224.216C41.5947 223.533 42.1013 223.011 42.752 222.648C43.4133 222.275 44.1707 222.088 45.024 222.088C45.856 222.088 46.592 222.269 47.232 222.632C47.872 222.995 48.3627 223.496 48.704 224.136C49.056 224.765 49.232 225.48 49.232 226.28ZM47.728 225.976C47.728 225.421 47.6053 224.947 47.36 224.552C47.1147 224.147 46.7787 223.843 46.352 223.64C45.936 223.427 45.472 223.32 44.96 223.32C44.224 223.32 43.5947 223.555 43.072 224.024C42.56 224.493 42.2667 225.144 42.192 225.976H47.728ZM55.7299 231L53.6499 227.736L51.6499 231H50.1299L52.9619 226.648L50.1299 222.232H51.7779L53.8579 225.48L55.8419 222.232H57.3619L54.5459 226.568L57.3779 231H55.7299ZM58.2661 226.6C58.2661 225.693 58.4475 224.904 58.8101 224.232C59.1728 223.549 59.6741 223.021 60.3141 222.648C60.9648 222.275 61.7061 222.088 62.5381 222.088C63.6155 222.088 64.5008 222.349 65.1941 222.872C65.8981 223.395 66.3621 224.12 66.5861 225.048H65.0181C64.8688 224.515 64.5755 224.093 64.1381 223.784C63.7115 223.475 63.1781 223.32 62.5381 223.32C61.7061 223.32 61.0341 223.608 60.5221 224.184C60.0101 224.749 59.7541 225.555 59.7541 226.6C59.7541 227.656 60.0101 228.472 60.5221 229.048C61.0341 229.624 61.7061 229.912 62.5381 229.912C63.1781 229.912 63.7115 229.763 64.1381 229.464C64.5648 229.165 64.8581 228.739 65.0181 228.184H66.5861C66.3515 229.08 65.8821 229.8 65.1781 230.344C64.4741 230.877 63.5941 231.144 62.5381 231.144C61.7061 231.144 60.9648 230.957 60.3141 230.584C59.6741 230.211 59.1728 229.683 58.8101 229C58.4475 228.317 58.2661 227.517 58.2661 226.6ZM69.2809 220.808C69.0035 220.808 68.7689 220.712 68.5769 220.52C68.3849 220.328 68.2889 220.093 68.2889 219.816C68.2889 219.539 68.3849 219.304 68.5769 219.112C68.7689 218.92 69.0035 218.824 69.2809 218.824C69.5475 218.824 69.7715 218.92 69.9529 219.112C70.1449 219.304 70.2409 219.539 70.2409 219.816C70.2409 220.093 70.1449 220.328 69.9529 220.52C69.7715 220.712 69.5475 220.808 69.2809 220.808ZM69.9849 222.232V231H68.5289V222.232H69.9849ZM74.2424 223.432V228.6C74.2424 229.027 74.333 229.331 74.5144 229.512C74.6957 229.683 75.0104 229.768 75.4584 229.768H76.5304V231H75.2184C74.4077 231 73.7997 230.813 73.3944 230.44C72.989 230.067 72.7864 229.453 72.7864 228.6V223.432H71.6504V222.232H72.7864V220.024H74.2424V222.232H76.5304V223.432H74.2424ZM79.0465 220.808C78.7692 220.808 78.5345 220.712 78.3425 220.52C78.1505 220.328 78.0545 220.093 78.0545 219.816C78.0545 219.539 78.1505 219.304 78.3425 219.112C78.5345 218.92 78.7692 218.824 79.0465 218.824C79.3132 218.824 79.5372 218.92 79.7185 219.112C79.9105 219.304 80.0065 219.539 80.0065 219.816C80.0065 220.093 79.9105 220.328 79.7185 220.52C79.5372 220.712 79.3132 220.808 79.0465 220.808ZM79.7505 222.232V231H78.2945V222.232H79.7505ZM86.504 222.072C87.5707 222.072 88.4347 222.397 89.096 223.048C89.7573 223.688 90.088 224.616 90.088 225.832V231H88.648V226.04C88.648 225.165 88.4293 224.499 87.992 224.04C87.5547 223.571 86.9573 223.336 86.2 223.336C85.432 223.336 84.8187 223.576 84.36 224.056C83.912 224.536 83.688 225.235 83.688 226.152V231H82.232V222.232H83.688V223.48C83.976 223.032 84.3653 222.685 84.856 222.44C85.3573 222.195 85.9067 222.072 86.504 222.072ZM96.0824 222.088C96.8397 222.088 97.501 222.253 98.0664 222.584C98.6424 222.915 99.069 223.331 99.3464 223.832V222.232H100.818V231.192C100.818 231.992 100.648 232.701 100.306 233.32C99.965 233.949 99.4744 234.44 98.8344 234.792C98.205 235.144 97.469 235.32 96.6264 235.32C95.4744 235.32 94.5144 235.048 93.7464 234.504C92.9784 233.96 92.525 233.219 92.3864 232.28H93.8264C93.9864 232.813 94.317 233.24 94.8184 233.56C95.3197 233.891 95.9224 234.056 96.6264 234.056C97.4264 234.056 98.077 233.805 98.5784 233.304C99.0904 232.803 99.3464 232.099 99.3464 231.192V229.352C99.0584 229.864 98.6317 230.291 98.0664 230.632C97.501 230.973 96.8397 231.144 96.0824 231.144C95.3037 231.144 94.5944 230.952 93.9544 230.568C93.325 230.184 92.829 229.645 92.4664 228.952C92.1037 228.259 91.9224 227.469 91.9224 226.584C91.9224 225.688 92.1037 224.904 92.4664 224.232C92.829 223.549 93.325 223.021 93.9544 222.648C94.5944 222.275 95.3037 222.088 96.0824 222.088ZM99.3464 226.6C99.3464 225.939 99.213 225.363 98.9464 224.872C98.6797 224.381 98.317 224.008 97.8584 223.752C97.4104 223.485 96.9144 223.352 96.3704 223.352C95.8264 223.352 95.3304 223.48 94.8824 223.736C94.4344 223.992 94.077 224.365 93.8104 224.856C93.5437 225.347 93.4104 225.923 93.4104 226.584C93.4104 227.256 93.5437 227.843 93.8104 228.344C94.077 228.835 94.4344 229.213 94.8824 229.48C95.3304 229.736 95.8264 229.864 96.3704 229.864C96.9144 229.864 97.4104 229.736 97.8584 229.48C98.317 229.213 98.6797 228.835 98.9464 228.344C99.213 227.843 99.3464 227.261 99.3464 226.6ZM109.321 223.432V228.6C109.321 229.027 109.411 229.331 109.593 229.512C109.774 229.683 110.089 229.768 110.536 229.768H111.609V231H110.297C109.486 231 108.878 230.813 108.473 230.44C108.067 230.067 107.865 229.453 107.865 228.6V223.432H106.729V222.232H107.865V220.024H109.321V222.232H111.609V223.432H109.321ZM114.829 223.656C115.085 223.155 115.447 222.765 115.917 222.488C116.397 222.211 116.978 222.072 117.661 222.072V223.576H117.277C115.645 223.576 114.829 224.461 114.829 226.232V231H113.373V222.232H114.829V223.656ZM118.797 226.584C118.797 225.688 118.979 224.904 119.341 224.232C119.704 223.549 120.2 223.021 120.829 222.648C121.469 222.275 122.179 222.088 122.957 222.088C123.725 222.088 124.392 222.253 124.957 222.584C125.523 222.915 125.944 223.331 126.221 223.832V222.232H127.693V231H126.221V229.368C125.933 229.88 125.501 230.307 124.925 230.648C124.36 230.979 123.699 231.144 122.941 231.144C122.163 231.144 121.459 230.952 120.829 230.568C120.2 230.184 119.704 229.645 119.341 228.952C118.979 228.259 118.797 227.469 118.797 226.584ZM126.221 226.6C126.221 225.939 126.088 225.363 125.821 224.872C125.555 224.381 125.192 224.008 124.733 223.752C124.285 223.485 123.789 223.352 123.245 223.352C122.701 223.352 122.205 223.48 121.757 223.736C121.309 223.992 120.952 224.365 120.685 224.856C120.419 225.347 120.285 225.923 120.285 226.584C120.285 227.256 120.419 227.843 120.685 228.344C120.952 228.835 121.309 229.213 121.757 229.48C122.205 229.736 122.701 229.864 123.245 229.864C123.789 229.864 124.285 229.736 124.733 229.48C125.192 229.213 125.555 228.835 125.821 228.344C126.088 227.843 126.221 227.261 126.221 226.6ZM133.418 229.656L136.138 222.232H137.69L134.25 231H132.554L129.114 222.232H130.682L133.418 229.656ZM147.123 226.28C147.123 226.557 147.107 226.851 147.075 227.16H140.067C140.12 228.024 140.413 228.701 140.947 229.192C141.491 229.672 142.147 229.912 142.915 229.912C143.544 229.912 144.067 229.768 144.483 229.48C144.909 229.181 145.208 228.787 145.379 228.296H146.947C146.712 229.139 146.243 229.827 145.539 230.36C144.835 230.883 143.96 231.144 142.915 231.144C142.083 231.144 141.336 230.957 140.675 230.584C140.024 230.211 139.512 229.683 139.139 229C138.765 228.307 138.579 227.507 138.579 226.6C138.579 225.693 138.76 224.899 139.123 224.216C139.485 223.533 139.992 223.011 140.643 222.648C141.304 222.275 142.061 222.088 142.915 222.088C143.747 222.088 144.483 222.269 145.123 222.632C145.763 222.995 146.253 223.496 146.595 224.136C146.947 224.765 147.123 225.48 147.123 226.28ZM145.619 225.976C145.619 225.421 145.496 224.947 145.251 224.552C145.005 224.147 144.669 223.843 144.243 223.64C143.827 223.427 143.363 223.32 142.851 223.32C142.115 223.32 141.485 223.555 140.963 224.024C140.451 224.493 140.157 225.144 140.083 225.976H145.619ZM150.501 219.16V231H149.045V219.16H150.501ZM165.248 226.28C165.248 226.557 165.232 226.851 165.2 227.16H158.192C158.245 228.024 158.538 228.701 159.072 229.192C159.616 229.672 160.272 229.912 161.04 229.912C161.669 229.912 162.192 229.768 162.608 229.48C163.034 229.181 163.333 228.787 163.504 228.296H165.072C164.837 229.139 164.368 229.827 163.664 230.36C162.96 230.883 162.085 231.144 161.04 231.144C160.208 231.144 159.461 230.957 158.8 230.584C158.149 230.211 157.637 229.683 157.264 229C156.89 228.307 156.704 227.507 156.704 226.6C156.704 225.693 156.885 224.899 157.248 224.216C157.61 223.533 158.117 223.011 158.768 222.648C159.429 222.275 160.186 222.088 161.04 222.088C161.872 222.088 162.608 222.269 163.248 222.632C163.888 222.995 164.378 223.496 164.72 224.136C165.072 224.765 165.248 225.48 165.248 226.28ZM163.744 225.976C163.744 225.421 163.621 224.947 163.376 224.552C163.13 224.147 162.794 223.843 162.368 223.64C161.952 223.427 161.488 223.32 160.976 223.32C160.24 223.32 159.61 223.555 159.088 224.024C158.576 224.493 158.282 225.144 158.208 225.976H163.744ZM171.746 231L169.666 227.736L167.666 231H166.146L168.978 226.648L166.146 222.232H167.794L169.874 225.48L171.858 222.232H173.378L170.562 226.568L173.394 231H171.746ZM176.282 223.848C176.57 223.347 176.996 222.931 177.562 222.6C178.138 222.259 178.804 222.088 179.562 222.088C180.34 222.088 181.044 222.275 181.674 222.648C182.314 223.021 182.815 223.549 183.178 224.232C183.54 224.904 183.722 225.688 183.722 226.584C183.722 227.469 183.54 228.259 183.178 228.952C182.815 229.645 182.314 230.184 181.674 230.568C181.044 230.952 180.34 231.144 179.562 231.144C178.815 231.144 178.154 230.979 177.578 230.648C177.012 230.307 176.58 229.885 176.282 229.384V235.16H174.826V222.232H176.282V223.848ZM182.234 226.584C182.234 225.923 182.1 225.347 181.834 224.856C181.567 224.365 181.204 223.992 180.746 223.736C180.298 223.48 179.802 223.352 179.258 223.352C178.724 223.352 178.228 223.485 177.77 223.752C177.322 224.008 176.959 224.387 176.682 224.888C176.415 225.379 176.282 225.949 176.282 226.6C176.282 227.261 176.415 227.843 176.682 228.344C176.959 228.835 177.322 229.213 177.77 229.48C178.228 229.736 178.724 229.864 179.258 229.864C179.802 229.864 180.298 229.736 180.746 229.48C181.204 229.213 181.567 228.835 181.834 228.344C182.1 227.843 182.234 227.256 182.234 226.584ZM193.638 226.28C193.638 226.557 193.622 226.851 193.59 227.16H186.582C186.636 228.024 186.929 228.701 187.462 229.192C188.006 229.672 188.662 229.912 189.43 229.912C190.06 229.912 190.582 229.768 190.998 229.48C191.425 229.181 191.724 228.787 191.894 228.296H193.462C193.228 229.139 192.758 229.827 192.054 230.36C191.35 230.883 190.476 231.144 189.43 231.144C188.598 231.144 187.852 230.957 187.19 230.584C186.54 230.211 186.028 229.683 185.654 229C185.281 228.307 185.094 227.507 185.094 226.6C185.094 225.693 185.276 224.899 185.638 224.216C186.001 223.533 186.508 223.011 187.158 222.648C187.82 222.275 188.577 222.088 189.43 222.088C190.262 222.088 190.998 222.269 191.638 222.632C192.278 222.995 192.769 223.496 193.11 224.136C193.462 224.765 193.638 225.48 193.638 226.28ZM192.134 225.976C192.134 225.421 192.012 224.947 191.766 224.552C191.521 224.147 191.185 223.843 190.758 223.64C190.342 223.427 189.878 223.32 189.366 223.32C188.63 223.32 188.001 223.555 187.478 224.024C186.966 224.493 186.673 225.144 186.598 225.976H192.134ZM197.016 223.656C197.272 223.155 197.635 222.765 198.104 222.488C198.584 222.211 199.165 222.072 199.848 222.072V223.576H199.464C197.832 223.576 197.016 224.461 197.016 226.232V231H195.56V222.232H197.016V223.656ZM202.281 220.808C202.004 220.808 201.769 220.712 201.577 220.52C201.385 220.328 201.289 220.093 201.289 219.816C201.289 219.539 201.385 219.304 201.577 219.112C201.769 218.92 202.004 218.824 202.281 218.824C202.548 218.824 202.772 218.92 202.953 219.112C203.145 219.304 203.241 219.539 203.241 219.816C203.241 220.093 203.145 220.328 202.953 220.52C202.772 220.712 202.548 220.808 202.281 220.808ZM202.985 222.232V231H201.529V222.232H202.985ZM213.466 226.28C213.466 226.557 213.45 226.851 213.418 227.16H206.41C206.464 228.024 206.757 228.701 207.29 229.192C207.834 229.672 208.49 229.912 209.258 229.912C209.888 229.912 210.41 229.768 210.826 229.48C211.253 229.181 211.552 228.787 211.722 228.296H213.29C213.056 229.139 212.586 229.827 211.882 230.36C211.178 230.883 210.304 231.144 209.258 231.144C208.426 231.144 207.68 230.957 207.018 230.584C206.368 230.211 205.856 229.683 205.482 229C205.109 228.307 204.922 227.507 204.922 226.6C204.922 225.693 205.104 224.899 205.466 224.216C205.829 223.533 206.336 223.011 206.986 222.648C207.648 222.275 208.405 222.088 209.258 222.088C210.09 222.088 210.826 222.269 211.466 222.632C212.106 222.995 212.597 223.496 212.938 224.136C213.29 224.765 213.466 225.48 213.466 226.28ZM211.962 225.976C211.962 225.421 211.84 224.947 211.594 224.552C211.349 224.147 211.013 223.843 210.586 223.64C210.17 223.427 209.706 223.32 209.194 223.32C208.458 223.32 207.829 223.555 207.306 224.024C206.794 224.493 206.501 225.144 206.426 225.976H211.962ZM219.66 222.072C220.727 222.072 221.591 222.397 222.252 223.048C222.914 223.688 223.244 224.616 223.244 225.832V231H221.804V226.04C221.804 225.165 221.586 224.499 221.148 224.04C220.711 223.571 220.114 223.336 219.356 223.336C218.588 223.336 217.975 223.576 217.516 224.056C217.068 224.536 216.844 225.235 216.844 226.152V231H215.388V222.232H216.844V223.48C217.132 223.032 217.522 222.685 218.012 222.44C218.514 222.195 219.063 222.072 219.66 222.072ZM225.079 226.6C225.079 225.693 225.26 224.904 225.623 224.232C225.985 223.549 226.487 223.021 227.127 222.648C227.777 222.275 228.519 222.088 229.351 222.088C230.428 222.088 231.313 222.349 232.007 222.872C232.711 223.395 233.175 224.12 233.399 225.048H231.831C231.681 224.515 231.388 224.093 230.951 223.784C230.524 223.475 229.991 223.32 229.351 223.32C228.519 223.32 227.847 223.608 227.335 224.184C226.823 224.749 226.567 225.555 226.567 226.6C226.567 227.656 226.823 228.472 227.335 229.048C227.847 229.624 228.519 229.912 229.351 229.912C229.991 229.912 230.524 229.763 230.951 229.464C231.377 229.165 231.671 228.739 231.831 228.184H233.399C233.164 229.08 232.695 229.8 231.991 230.344C231.287 230.877 230.407 231.144 229.351 231.144C228.519 231.144 227.777 230.957 227.127 230.584C226.487 230.211 225.985 229.683 225.623 229C225.26 228.317 225.079 227.517 225.079 226.6ZM243.341 226.28C243.341 226.557 243.325 226.851 243.293 227.16H236.285C236.339 228.024 236.632 228.701 237.165 229.192C237.709 229.672 238.365 229.912 239.133 229.912C239.763 229.912 240.285 229.768 240.701 229.48C241.128 229.181 241.427 228.787 241.597 228.296H243.165C242.931 229.139 242.461 229.827 241.757 230.36C241.053 230.883 240.179 231.144 239.133 231.144C238.301 231.144 237.555 230.957 236.893 230.584C236.243 230.211 235.731 229.683 235.357 229C234.984 228.307 234.797 227.507 234.797 226.6C234.797 225.693 234.979 224.899 235.341 224.216C235.704 223.533 236.211 223.011 236.861 222.648C237.523 222.275 238.28 222.088 239.133 222.088C239.965 222.088 240.701 222.269 241.341 222.632C241.981 222.995 242.472 223.496 242.813 224.136C243.165 224.765 243.341 225.48 243.341 226.28ZM241.837 225.976C241.837 225.421 241.715 224.947 241.469 224.552C241.224 224.147 240.888 223.843 240.461 223.64C240.045 223.427 239.581 223.32 239.069 223.32C238.333 223.32 237.704 223.555 237.181 224.024C236.669 224.493 236.376 225.144 236.301 225.976H241.837ZM245.727 231.096C245.45 231.096 245.215 231 245.023 230.808C244.831 230.616 244.735 230.381 244.735 230.104C244.735 229.827 244.831 229.592 245.023 229.4C245.215 229.208 245.45 229.112 245.727 229.112C245.994 229.112 246.218 229.208 246.399 229.4C246.591 229.592 246.687 229.827 246.687 230.104C246.687 230.381 246.591 230.616 246.399 230.808C246.218 231 245.994 231.096 245.727 231.096Z" fill="#666666"/>
<path d="M58.4403 40.1038C52.377 40.7139 46.7924 44.1022 43.329 49.2832C41.6959 51.7329 40.4664 55.1212 40.0909 58.1998C39.9501 59.373 39.9783 61.5881 40.1378 62.5361C41.1515 68.3084 46.8675 76.4554 56.0469 85.203C57.9335 86.9957 58.3559 87.3524 58.9472 87.6527C59.6136 87.9812 59.698 88 60.5522 88C61.4063 88 61.4907 87.9812 62.1571 87.6527C62.7485 87.3524 63.1708 86.9957 65.0574 85.203C71.0174 79.5245 75.8136 73.7334 78.4604 68.9936C79.7651 66.6471 80.5441 64.6667 80.9289 62.6956C81.1354 61.635 81.173 59.5232 81.0134 58.1998C80.6661 55.3183 79.5961 52.2304 78.1319 49.8464C76.9962 48.0067 75.1284 45.8949 73.4484 44.5339C69.2623 41.1738 63.8184 39.5594 58.4403 40.1038ZM63.5556 41.6337C68.5208 42.4597 72.9509 45.144 75.9169 49.133C77.8973 51.7892 79.0799 54.6707 79.568 58.0121C79.7932 59.6171 79.7182 61.9635 79.3803 63.2212C77.9161 68.7777 72.6787 75.9391 63.9405 84.3207C62.7766 85.4283 61.838 86.2542 61.594 86.3762C61.0308 86.6484 60.402 86.6954 59.8201 86.4983C59.2569 86.3199 57.9992 85.1936 55.2116 82.406C49.2797 76.4835 45.3939 71.4902 43.1883 66.9756C41.8179 64.188 41.4049 62.6299 41.4049 60.3116C41.4049 51.7517 47.4588 44.1022 55.9155 41.9716C56.6289 41.7933 58.1306 41.5305 58.9096 41.4554C59.698 41.3803 62.7015 41.4929 63.5556 41.6337Z" fill="#FFB60A"/>
<path d="M58.9565 45.2563C55.4556 45.6599 52.4427 47.0584 49.9085 49.4706C47.6277 51.6481 46.1166 54.3606 45.4221 57.5706C45.2437 58.3965 45.2156 58.8095 45.2156 60.5928C45.2156 62.3761 45.2437 62.7891 45.4221 63.6057C45.882 65.7081 46.7924 67.82 47.9469 69.4625C48.8573 70.7484 50.6031 72.4566 51.8608 73.3013C55.3242 75.6103 59.0504 76.4362 63.1332 75.7886C63.6495 75.7041 64.2032 75.5821 64.3722 75.5164C64.8602 75.3099 64.9259 74.6529 64.4848 74.3244C64.2502 74.1461 64.2314 74.1461 63.1708 74.3525C61.7723 74.6341 59.454 74.6529 58.1118 74.3995C55.2303 73.8457 52.7149 72.5223 50.65 70.448C49.3266 69.134 47.8342 66.9471 48.1252 66.7594C48.1815 66.7218 49.2891 65.8114 50.5749 64.7414C52.1048 63.4743 52.9495 62.714 52.9871 62.5639C53.1185 62.057 52.5366 61.5314 52.0767 61.7473C51.964 61.7942 50.8753 62.6671 49.6645 63.6714L47.4588 65.5016L47.3274 65.2107C47.1209 64.7226 46.7736 63.249 46.6516 62.3574C46.4827 61.0903 46.5953 58.7626 46.8769 57.5424C48.0689 52.521 51.6825 48.6446 56.5443 47.1804C57.9804 46.7486 58.8908 46.6172 60.5521 46.6172C62.373 46.6172 63.3679 46.7768 64.9729 47.3118C66.8688 47.9407 68.5583 48.9262 69.9568 50.212C70.8015 51.0005 71.1206 51.1131 71.4773 50.7564C71.9184 50.3153 71.8246 50.0525 70.9423 49.2171C67.8543 46.2981 63.2271 44.7682 58.9565 45.2563Z" fill="#FFB60A"/>
<path d="M63.931 51.6953C63.3209 51.9206 62.5044 52.7559 62.2885 53.4035C61.913 54.5392 62.2979 55.8157 63.2271 56.529C64.6537 57.6178 66.6341 57.1485 67.4789 55.5248C67.8355 54.8302 67.8355 53.8541 67.4695 53.1126C67.1504 52.465 66.5215 51.883 65.9302 51.6859C65.3858 51.4982 64.4848 51.5076 63.931 51.6953ZM65.6205 53.0844C66.4746 53.5256 66.5966 54.7176 65.8551 55.3652C65.245 55.9096 64.2783 55.7969 63.7996 55.1305C63.5274 54.7551 63.4993 54.0042 63.7339 53.6194C64.1281 53 64.9822 52.7559 65.6205 53.0844Z" fill="#FFB60A"/>
<path d="M72.3877 52.155C72.1436 52.4647 72.1436 52.6242 72.3783 53.0372C72.8664 53.8913 73.5046 55.2148 73.7392 55.853C74.2649 57.3266 74.4526 58.3872 74.5089 60.2831C74.537 61.2593 74.537 62.0477 74.4995 62.0477C74.462 62.0477 73.5797 61.3625 72.5378 60.5272C71.496 59.6824 70.4917 58.9222 70.3134 58.8377C69.9004 58.6218 69.3373 58.6312 68.8586 58.8471C68.6521 58.9503 67.6853 59.6824 66.7186 60.499C65.4984 61.5033 64.9165 61.935 64.8414 61.8787C64.7757 61.8318 63.4523 60.7806 61.9036 59.5323C60.3456 58.2933 58.9752 57.2515 58.8626 57.2139C58.4309 57.0732 57.7457 57.1389 57.3984 57.3453C56.7226 57.7489 54.0007 60.0766 53.9444 60.3113C53.813 60.8181 54.3949 61.3437 54.8548 61.1372C54.9675 61.0809 55.7183 60.4896 56.5161 59.8232C57.3139 59.1568 58.0367 58.5843 58.1211 58.5561C58.2056 58.5186 58.3745 58.5655 58.5059 58.65C59.0503 59.016 71.6274 69.1153 71.6274 69.1903C71.6274 69.2279 71.1769 69.7253 70.6231 70.2885C69.5062 71.4242 68.6145 72.1187 67.4038 72.8039C66.9626 73.0479 66.5309 73.3107 66.4464 73.3858C66.2118 73.5829 66.2305 74.1085 66.4652 74.3432C66.728 74.606 67.0377 74.5778 67.7135 74.2399C71.0737 72.5505 73.9457 69.1622 75.1847 65.4454C75.776 63.6714 75.8886 62.8736 75.8886 60.5929C75.8886 58.3215 75.776 57.5237 75.1847 55.7404C74.8374 54.6704 73.8988 52.7369 73.5046 52.2582C73.1292 51.8171 72.688 51.7701 72.3877 52.155ZM71.9653 61.86C73.8237 63.3429 74.1992 63.6808 74.1804 63.8592C74.0677 64.6288 72.9978 67.2005 72.5472 67.8012C72.4346 67.9514 72.1436 67.7355 69.2528 65.4172C67.507 64.0187 66.0991 62.8549 66.1273 62.8267C66.5403 62.4043 69.4593 60.0766 69.5719 60.0766C69.6564 60.0766 70.7264 60.8838 71.9653 61.86Z" fill="#FFB60A"/>
</svg>
